<svg width="606" height="259" viewBox="0 0 606 259" fill="none" xmlns="http://www.w3.org/2000/svg">
<path opacity="0.06" d="M0 210.537H120.01V254.488H170.554V210.537H201.564V168.173H170.554V4.45654H104.383L0 168.906V210.537ZM120.987 168.173H53.2294V166.22L119.034 62.081H120.987V168.173Z" fill="#5B40FF"/>
<path opacity="0.06" d="M302.529 258.944C365.403 258.944 403.372 211.086 403.494 128.678C403.616 46.8809 365.159 0 302.529 0C239.777 0 201.687 46.7588 201.565 128.678C201.32 210.842 239.533 258.822 302.529 258.944ZM302.529 215.115C273.839 215.115 255.282 186.303 255.404 128.678C255.526 71.9085 273.961 43.3404 302.529 43.3404C330.975 43.3404 349.532 71.9085 349.532 128.678C349.654 186.303 331.098 215.115 302.529 215.115Z" fill="#5B40FF"/>
<path opacity="0.06" d="M403.494 210.537H523.505V254.488H574.048V210.537H605.058V168.173H574.048V4.45654H507.878L403.494 168.906V210.537ZM524.481 168.173H456.724V166.22L522.528 62.081H524.481V168.173Z" fill="#5B40FF"/>
</svg>
