<svg width="24" height="24" viewBox="0 0 24 24" fill="none" xmlns="http://www.w3.org/2000/svg">
<path d="M0 6C0 2.68629 2.68629 0 6 0H18C21.3137 0 24 2.68629 24 6V18C24 21.3137 21.3137 24 18 24H6C2.68629 24 0 21.3137 0 18V6Z" fill="black" fill-opacity="0.03"/>
<g clip-path="url(#clip0_4_14931)">
<path d="M17.3033 14.9467L16.125 13.7667L17.3033 12.5883C17.693 12.202 18.0025 11.7426 18.2142 11.2363C18.4258 10.7301 18.5354 10.187 18.5366 9.63829C18.5378 9.08959 18.4306 8.54604 18.2212 8.03887C18.0118 7.5317 17.7042 7.07089 17.3162 6.68289C16.9282 6.2949 16.4674 5.98736 15.9603 5.77793C15.4531 5.5685 14.9095 5.46131 14.3608 5.46251C13.8121 5.46372 13.2691 5.57328 12.7628 5.78493C12.2566 5.99658 11.7971 6.30613 11.4108 6.69582L10.2325 7.87499L9.0533 6.69666L10.2333 5.51832C11.3273 4.42431 12.8111 3.80969 14.3583 3.80969C15.9055 3.80969 17.3893 4.42431 18.4833 5.51832C19.5773 6.61234 20.1919 8.09615 20.1919 9.64332C20.1919 11.1905 19.5773 12.6743 18.4833 13.7683L17.3041 14.9467H17.3033ZM14.9466 17.3033L13.7675 18.4817C12.6735 19.5757 11.1896 20.1903 9.64247 20.1903C8.09529 20.1903 6.61149 19.5757 5.51747 18.4817C4.42345 17.3876 3.80884 15.9038 3.80884 14.3567C3.80884 12.8095 4.42345 11.3257 5.51747 10.2317L6.69664 9.05332L7.87497 10.2333L6.69664 11.4117C6.30694 11.7979 5.99739 12.2574 5.78574 12.7637C5.5741 13.2699 5.46453 13.813 5.46333 14.3617C5.46212 14.9104 5.56931 15.4539 5.77874 15.9611C5.98817 16.4683 6.29571 16.9291 6.6837 17.3171C7.0717 17.7051 7.53251 18.0126 8.03968 18.2221C8.54685 18.4315 9.0904 18.5387 9.63911 18.5375C10.1878 18.5363 10.7309 18.4267 11.2371 18.2151C11.7434 18.0034 12.2028 17.6938 12.5891 17.3042L13.7675 16.1258L14.9466 17.3042V17.3033ZM14.3566 8.46416L15.5358 9.64332L9.6433 15.535L8.46414 14.3567L14.3566 8.46499V8.46416Z" fill="black"/>
</g>
<defs>
<clipPath id="clip0_4_14931">
<rect width="20" height="20" fill="white" transform="translate(2 2)"/>
</clipPath>
</defs>
</svg>
