<svg width="24" height="24" viewBox="0 0 24 24" fill="none" xmlns="http://www.w3.org/2000/svg">
<path d="M0 6C0 2.68629 2.68629 0 6 0H18C21.3137 0 24 2.68629 24 6V18C24 21.3137 21.3137 24 18 24H6C2.68629 24 0 21.3137 0 18V6Z" fill="black" fill-opacity="0.03"/>
<rect x="3.25" y="3.25" width="17.5" height="17.5" rx="8.75" fill="#1275B1"/>
<path d="M9.8866 8.05759C9.8866 8.64169 9.38032 9.11519 8.7558 9.11519C8.13128 9.11519 7.625 8.64169 7.625 8.05759C7.625 7.4735 8.13128 7 8.7558 7C9.38032 7 9.8866 7.4735 9.8866 8.05759Z" fill="white"/>
<path d="M7.77964 9.89256H9.71263V15.75H7.77964V9.89256Z" fill="white"/>
<path d="M12.8247 9.89256H10.8918V15.75H12.8247C12.8247 15.75 12.8247 13.906 12.8247 12.753C12.8247 12.061 13.061 11.366 14.0039 11.366C15.0694 11.366 15.063 12.2716 15.058 12.9732C15.0515 13.8903 15.067 14.8262 15.067 15.75H17V12.6586C16.9836 10.6846 16.4693 9.77505 14.7771 9.77505C13.7721 9.77505 13.1492 10.2313 12.8247 10.6441V9.89256Z" fill="white"/>
</svg>
