<svg width="24" height="24" viewBox="0 0 24 24" fill="none" xmlns="http://www.w3.org/2000/svg">
<path d="M0 6C0 2.68629 2.68629 0 6 0H18C21.3137 0 24 2.68629 24 6V18C24 21.3137 21.3137 24 18 24H6C2.68629 24 0 21.3137 0 18V6Z" fill="black" fill-opacity="0.03"/>
<path d="M9.36796 19.5C7.34609 19.5 5.46136 18.9119 3.875 17.8973C5.22187 17.9844 7.59879 17.7757 9.07724 16.3655C6.85317 16.2634 5.85016 14.5577 5.71934 13.8287C5.90831 13.9016 6.80956 13.9891 7.31834 13.785C4.75994 13.1435 4.36745 10.8983 4.45467 10.2131C4.93437 10.5484 5.74841 10.6651 6.06821 10.6359C3.68425 8.93015 4.54189 6.36422 4.96345 5.81022C6.67426 8.18042 9.23825 9.51161 12.4102 9.58565C12.3504 9.32335 12.3188 9.05026 12.3188 8.76978C12.3188 6.75682 13.9459 5.125 15.9529 5.125C17.0016 5.125 17.9465 5.57047 18.6098 6.28302C19.3106 6.11882 20.3652 5.73442 20.8808 5.402C20.6209 6.33507 19.8118 7.11343 19.3224 7.40192C19.3185 7.39207 19.3265 7.41174 19.3224 7.40192C19.7523 7.3369 20.9155 7.11336 21.375 6.8016C21.1478 7.32578 20.29 8.19733 19.5861 8.68526C19.717 14.4613 15.2978 19.5 9.36796 19.5Z" fill="#47ACDF"/>
</svg>
