<svg width="32" height="32" viewBox="0 0 32 32" fill="none" xmlns="http://www.w3.org/2000/svg">
<path d="M0 6C0 2.68629 2.68629 0 6 0H26C29.3137 0 32 2.68629 32 6V26C32 29.3137 29.3137 32 26 32H6C2.68629 32 0 29.3137 0 26V6Z" fill="white" fill-opacity="0.2"/>
<g clip-path="url(#clip0_4_7006)">
<path d="M21.3033 18.9468L20.125 17.7668L21.3033 16.5884C21.693 16.2022 22.0025 15.7427 22.2142 15.2364C22.4258 14.7302 22.5354 14.1871 22.5366 13.6384C22.5378 13.0897 22.4306 12.5462 22.2212 12.039C22.0118 11.5318 21.7042 11.071 21.3162 10.683C20.9282 10.295 20.4674 9.98748 19.9603 9.77805C19.4531 9.56862 18.9095 9.46143 18.3608 9.46264C17.8121 9.46384 17.2691 9.57341 16.7628 9.78505C16.2566 9.9967 15.7971 10.3063 15.4108 10.6959L14.2325 11.8751L13.0533 10.6968L14.2333 9.51845C15.3273 8.42443 16.8111 7.80981 18.3583 7.80981C19.9055 7.80981 21.3893 8.42443 22.4833 9.51845C23.5773 10.6125 24.1919 12.0963 24.1919 13.6434C24.1919 15.1906 23.5773 16.6744 22.4833 17.7684L21.3041 18.9468H21.3033ZM18.9466 21.3034L17.7675 22.4818C16.6735 23.5758 15.1896 24.1904 13.6425 24.1904C12.0953 24.1904 10.6115 23.5758 9.51747 22.4818C8.42345 21.3878 7.80884 19.904 7.80884 18.3568C7.80884 16.8096 8.42345 15.3258 9.51747 14.2318L10.6966 13.0534L11.875 14.2334L10.6966 15.4118C10.3069 15.7981 9.99739 16.2575 9.78574 16.7638C9.5741 17.27 9.46453 17.8131 9.46333 18.3618C9.46212 18.9105 9.56931 19.4541 9.77874 19.9612C9.98817 20.4684 10.2957 20.9292 10.6837 21.3172C11.0717 21.7052 11.5325 22.0127 12.0397 22.2222C12.5469 22.4316 13.0904 22.5388 13.6391 22.5376C14.1878 22.5364 14.7309 22.4268 15.2371 22.2152C15.7434 22.0035 16.2028 21.694 16.5891 21.3043L17.7675 20.1259L18.9466 21.3043V21.3034ZM18.3566 12.4643L19.5358 13.6434L13.6433 19.5351L12.4641 18.3568L18.3566 12.4651V12.4643Z" fill="white"/>
</g>
<defs>
<clipPath id="clip0_4_7006">
<rect width="20" height="20" fill="white" transform="translate(6 6)"/>
</clipPath>
</defs>
</svg>
