<svg width="32" height="32" viewBox="0 0 32 32" fill="none" xmlns="http://www.w3.org/2000/svg">
<path d="M0 6C0 2.68629 2.68629 0 6 0H26C29.3137 0 32 2.68629 32 6V26C32 29.3137 29.3137 32 26 32H6C2.68629 32 0 29.3137 0 26V6Z" fill="white" fill-opacity="0.2"/>
<path d="M13.368 23.5C11.3461 23.5 9.46136 22.9119 7.875 21.8973C9.22187 21.9844 11.5988 21.7757 13.0772 20.3655C10.8532 20.2634 9.85016 18.5577 9.71934 17.8287C9.90831 17.9016 10.8096 17.9891 11.3183 17.785C8.75994 17.1435 8.36745 14.8983 8.45467 14.2131C8.93437 14.5484 9.74841 14.6651 10.0682 14.6359C7.68425 12.9301 8.54189 10.3642 8.96345 9.81022C10.6743 12.1804 13.2383 13.5116 16.4102 13.5857C16.3504 13.3233 16.3188 13.0503 16.3188 12.7698C16.3188 10.7568 17.9459 9.125 19.9529 9.125C21.0016 9.125 21.9465 9.57047 22.6098 10.283C23.3106 10.1188 24.3652 9.73442 24.8808 9.402C24.6209 10.3351 23.8118 11.1134 23.3224 11.4019C23.3185 11.3921 23.3265 11.4117 23.3224 11.4019C23.7523 11.3369 24.9155 11.1134 25.375 10.8016C25.1478 11.3258 24.29 12.1973 23.5861 12.6853C23.717 18.4613 19.2978 23.5 13.368 23.5Z" fill="#47ACDF"/>
</svg>
