<svg width="24" height="24" viewBox="0 0 24 24" fill="none" xmlns="http://www.w3.org/2000/svg">
<g clip-path="url(#clip0_4_16644)">
<path d="M17 15.2451V22.1171C17 22.2056 16.9766 22.2925 16.932 22.3689C16.8875 22.4453 16.8235 22.5086 16.7465 22.5522C16.6696 22.5958 16.5824 22.6182 16.4939 22.6172C16.4055 22.6161 16.3189 22.5916 16.243 22.5461L12 20.0001L7.757 22.5461C7.68104 22.5916 7.59436 22.6161 7.50581 22.6172C7.41727 22.6182 7.33004 22.5957 7.25304 22.552C7.17605 22.5082 7.11205 22.4448 7.06759 22.3682C7.02313 22.2917 6.9998 22.2046 7 22.1161V15.2461C5.70615 14.2102 4.76599 12.798 4.30946 11.2046C3.85293 9.61129 3.90256 7.91549 4.45149 6.35157C5.00043 4.78765 6.02156 3.43284 7.37378 2.47438C8.726 1.51591 10.3425 1.0011 12 1.0011C13.6575 1.0011 15.274 1.51591 16.6262 2.47438C17.9784 3.43284 18.9996 4.78765 19.5485 6.35157C20.0974 7.91549 20.1471 9.61129 19.6905 11.2046C19.234 12.798 18.2939 14.2102 17 15.2461V15.2451ZM9 16.4181V19.4681L12 17.6681L15 19.4681V16.4181C14.0468 16.8036 13.0282 17.0012 12 17.0001C10.9718 17.0012 9.95316 16.8036 9 16.4181V16.4181ZM12 15.0001C13.5913 15.0001 15.1174 14.368 16.2426 13.2427C17.3679 12.1175 18 10.5914 18 9.0001C18 7.4088 17.3679 5.88267 16.2426 4.75746C15.1174 3.63224 13.5913 3.0001 12 3.0001C10.4087 3.0001 8.88258 3.63224 7.75736 4.75746C6.63214 5.88267 6 7.4088 6 9.0001C6 10.5914 6.63214 12.1175 7.75736 13.2427C8.88258 14.368 10.4087 15.0001 12 15.0001V15.0001Z" fill="#5B40FF"/>
</g>
<defs>
<clipPath id="clip0_4_16644">
<rect width="24" height="24" fill="white"/>
</clipPath>
</defs>
</svg>
