<svg width="25" height="24" viewBox="0 0 25 24" fill="none" xmlns="http://www.w3.org/2000/svg">
<g clip-path="url(#clip0_4_10516)">
<path d="M13.5 21V23H11.5V21H3.5C3.23478 21 2.98043 20.8946 2.79289 20.7071C2.60536 20.5196 2.5 20.2652 2.5 20V4C2.5 3.73479 2.60536 3.48043 2.79289 3.2929C2.98043 3.10536 3.23478 3 3.5 3H9.5C10.0676 2.99933 10.6288 3.11976 11.1461 3.35325C11.6635 3.58674 12.125 3.92792 12.5 4.354C12.875 3.92792 13.3365 3.58674 13.8539 3.35325C14.3712 3.11976 14.9324 2.99933 15.5 3H21.5C21.7652 3 22.0196 3.10536 22.2071 3.2929C22.3946 3.48043 22.5 3.73479 22.5 4V20C22.5 20.2652 22.3946 20.5196 22.2071 20.7071C22.0196 20.8946 21.7652 21 21.5 21H13.5ZM20.5 19V5H15.5C14.9696 5 14.4609 5.21072 14.0858 5.58579C13.7107 5.96086 13.5 6.46957 13.5 7V19H20.5ZM11.5 19V7C11.5 6.46957 11.2893 5.96086 10.9142 5.58579C10.5391 5.21072 10.0304 5 9.5 5H4.5V19H11.5Z" fill="#5B40FF"/>
</g>
<defs>
<clipPath id="clip0_4_10516">
<rect width="24" height="24" fill="white" transform="translate(0.5)"/>
</clipPath>
</defs>
</svg>
