<svg width="56" height="57" viewBox="0 0 56 57" fill="none" xmlns="http://www.w3.org/2000/svg">
<rect y="0.5" width="56" height="56" rx="28" fill="#F5F5F5"/>
<path fill-rule="evenodd" clip-rule="evenodd" d="M36.7072 21.2071C37.0978 20.8166 37.0978 20.1834 36.7072 19.7929C36.3167 19.4024 35.6835 19.4024 35.293 19.7929L28.0001 27.0859L20.7071 19.793C20.3166 19.4025 19.6834 19.4025 19.2929 19.793C18.9024 20.1835 18.9024 20.8167 19.2929 21.2072L26.5858 28.5001L19.293 35.793C18.9025 36.1835 18.9025 36.8167 19.293 37.2072C19.6835 37.5978 20.3167 37.5978 20.7072 37.2072L28.0001 29.9143L35.293 37.2072C35.6835 37.5978 36.3167 37.5978 36.7072 37.2072C37.0978 36.8167 37.0978 36.1835 36.7072 35.793L29.4143 28.5001L36.7072 21.2071Z" fill="#182325"/>
</svg>
