<svg width="24" height="24" viewBox="0 0 24 24" fill="none" xmlns="http://www.w3.org/2000/svg">
<g clip-path="url(#clip0_4_12127)">
<path d="M16.9999 21H6.99987C5.5831 21.0009 4.21172 20.5004 3.12856 19.5871C2.0454 18.6739 1.32035 17.4068 1.08178 16.0103C0.843215 14.6137 1.10653 13.1778 1.82511 11.9568C2.54368 10.7358 3.67115 9.80844 5.00787 9.33896C4.96259 8.39262 5.10989 7.44694 5.44083 6.5592C5.77178 5.67146 6.2795 4.86014 6.93322 4.17438C7.58694 3.48863 8.37307 2.94272 9.24398 2.56972C10.1149 2.19672 11.0525 2.00439 11.9999 2.00439C12.9473 2.00439 13.8849 2.19672 14.7558 2.56972C15.6267 2.94272 16.4128 3.48863 17.0665 4.17438C17.7203 4.86014 18.228 5.67146 18.5589 6.5592C18.8899 7.44694 19.0372 8.39262 18.9919 9.33896C20.3286 9.80844 21.4561 10.7358 22.1746 11.9568C22.8932 13.1778 23.1565 14.6137 22.918 16.0103C22.6794 17.4068 21.9543 18.6739 20.8712 19.5871C19.788 20.5004 18.4166 21.0009 16.9999 21ZM6.99987 19H16.9999C17.5425 18.999 18.0793 18.8876 18.5775 18.6726C19.0758 18.4576 19.5251 18.1435 19.8981 17.7494C20.2711 17.3552 20.5599 16.8893 20.7472 16.38C20.9344 15.8707 21.016 15.3286 20.9871 14.7867C20.9581 14.2448 20.8192 13.7145 20.5789 13.228C20.3385 12.7415 20.0016 12.309 19.5888 11.9568C19.1759 11.6046 18.6957 11.3401 18.1774 11.1794C17.6591 11.0187 17.1135 10.9651 16.5739 11.022C16.9099 10.2608 17.0507 9.42787 16.9835 8.59856C16.9163 7.76926 16.6432 6.96984 16.189 6.27275C15.7348 5.57566 15.1138 5.00294 14.3823 4.6065C13.6508 4.21006 12.8319 4.00243 11.9999 4.00243C11.1679 4.00243 10.349 4.21006 9.61748 4.6065C8.88598 5.00294 8.26497 5.57566 7.81074 6.27275C7.35651 6.96984 7.08342 7.76926 7.01621 8.59856C6.94901 9.42787 7.08982 10.2608 7.42587 11.022C6.88621 10.9651 6.34062 11.0187 5.82232 11.1794C5.30402 11.3401 4.82383 11.6046 4.41099 11.9568C3.99815 12.309 3.66128 12.7415 3.42089 13.228C3.1805 13.7145 3.04161 14.2448 3.01268 14.7867C2.98374 15.3286 3.06537 15.8707 3.25259 16.38C3.4398 16.8893 3.7287 17.3552 4.10169 17.7494C4.47468 18.1435 4.92396 18.4576 5.42221 18.6726C5.92045 18.8876 6.45723 18.999 6.99987 19V19Z" fill="#5B40FF"/>
</g>
<defs>
<clipPath id="clip0_4_12127">
<rect width="24" height="24" fill="white"/>
</clipPath>
</defs>
</svg>
