<svg width="25" height="24" viewBox="0 0 25 24" fill="none" xmlns="http://www.w3.org/2000/svg">
<g clip-path="url(#clip0_4_10258)">
<path d="M3.5 3H21.5C21.7652 3 22.0196 3.10536 22.2071 3.29289C22.3946 3.48043 22.5 3.73478 22.5 4V20C22.5 20.2652 22.3946 20.5196 22.2071 20.7071C22.0196 20.8946 21.7652 21 21.5 21H3.5C3.23478 21 2.98043 20.8946 2.79289 20.7071C2.60536 20.5196 2.5 20.2652 2.5 20V4C2.5 3.73478 2.60536 3.48043 2.79289 3.29289C2.98043 3.10536 3.23478 3 3.5 3V3ZM4.5 5V19H20.5V5H4.5ZM20.5 12L16.964 15.536L15.55 14.121L17.672 12L15.55 9.879L16.964 8.464L20.5 12ZM7.328 12L9.45 14.121L8.036 15.536L4.5 12L8.036 8.464L9.45 9.88L7.328 12ZM11.744 17H9.616L13.256 7H15.384L11.744 17Z" fill="#5B40FF"/>
</g>
<defs>
<clipPath id="clip0_4_10258">
<rect width="24" height="24" fill="white" transform="translate(0.5)"/>
</clipPath>
</defs>
</svg>
