<svg width="24" height="24" viewBox="0 0 24 24" fill="none" xmlns="http://www.w3.org/2000/svg">
<g clip-path="url(#clip0_4_12133)">
<path d="M14.0009 2C15.8309 1.99913 17.6059 2.62567 19.0298 3.77513C20.4537 4.92459 21.4405 6.52748 21.8256 8.31647C22.2107 10.1055 21.9708 11.9724 21.146 13.6059C20.3211 15.2395 18.9612 16.5408 17.2929 17.293C16.7597 18.4719 15.9485 19.5039 14.9288 20.3004C13.9091 21.097 12.7115 21.6343 11.4386 21.8663C10.1656 22.0984 8.85544 22.0182 7.62031 21.6327C6.38517 21.2472 5.26198 20.5678 4.34705 19.6529C3.43213 18.738 2.75277 17.6148 2.36726 16.3796C1.98174 15.1445 1.90156 13.8343 2.1336 12.5614C2.36564 11.2884 2.90297 10.0908 3.69951 9.07114C4.49605 8.05148 5.52803 7.24024 6.70694 6.707C7.34108 5.30389 8.36653 4.1135 9.66029 3.27861C10.954 2.44371 12.4612 1.99976 14.0009 2V2ZM10.0009 8C9.21301 8 8.43279 8.1552 7.70484 8.45672C6.97689 8.75825 6.31545 9.20021 5.7583 9.75736C5.20115 10.3145 4.75919 10.9759 4.45766 11.7039C4.15614 12.4319 4.00094 13.2121 4.00094 14C4.00094 14.7879 4.15614 15.5681 4.45766 16.2961C4.75919 17.0241 5.20115 17.6855 5.7583 18.2426C6.31545 18.7998 6.97689 19.2418 7.70484 19.5433C8.43279 19.8448 9.21301 20 10.0009 20C11.5922 20 13.1184 19.3679 14.2436 18.2426C15.3688 17.1174 16.0009 15.5913 16.0009 14C16.0009 12.4087 15.3688 10.8826 14.2436 9.75736C13.1184 8.63214 11.5922 8 10.0009 8ZM11.0009 9V10H13.0009V12H9.00094C8.87599 11.9998 8.75549 12.0463 8.66316 12.1305C8.57083 12.2147 8.51335 12.3304 8.50207 12.4548C8.49078 12.5793 8.52649 12.7034 8.60216 12.8028C8.67784 12.9023 8.78799 12.9697 8.91094 12.992L9.00094 13H11.0009C11.664 13 12.2999 13.2634 12.7687 13.7322C13.2375 14.2011 13.5009 14.837 13.5009 15.5C13.5009 16.163 13.2375 16.7989 12.7687 17.2678C12.2999 17.7366 11.664 18 11.0009 18V19H9.00094V18H7.00094V16H11.0009C11.1259 16.0002 11.2464 15.9537 11.3387 15.8695C11.4311 15.7853 11.4885 15.6696 11.4998 15.5452C11.5111 15.4207 11.4754 15.2966 11.3997 15.1972C11.324 15.0977 11.2139 15.0303 11.0909 15.008L11.0009 15H9.00094C8.3379 15 7.70201 14.7366 7.23317 14.2678C6.76433 13.7989 6.50094 13.163 6.50094 12.5C6.50094 11.837 6.76433 11.2011 7.23317 10.7322C7.70201 10.2634 8.3379 10 9.00094 10V9H11.0009ZM14.0009 4C13.1536 3.99901 12.3158 4.17794 11.5428 4.52496C10.7698 4.87198 10.0793 5.37918 9.51694 6.013C10.6472 5.94439 11.7792 6.1165 12.8379 6.51795C13.8967 6.9194 14.8582 7.54105 15.6589 8.34178C16.4595 9.14252 17.0811 10.1041 17.4824 11.1629C17.8837 12.2218 18.0557 13.3537 17.9869 14.484C18.8962 13.6756 19.5381 12.6099 19.8278 11.4283C20.1174 10.2467 20.0409 9.00492 19.6086 7.86772C19.1762 6.73053 18.4084 5.75164 17.4069 5.06088C16.4054 4.37013 15.2176 4.00014 14.0009 4V4Z" fill="#5B40FF"/>
</g>
<defs>
<clipPath id="clip0_4_12133">
<rect width="24" height="24" fill="white"/>
</clipPath>
</defs>
</svg>
