<svg width="754" height="699" viewBox="0 0 754 699" fill="none" xmlns="http://www.w3.org/2000/svg">
<path d="M649.812 53.021C656.49 53.021 661.912 55.7712 661.912 59.1585C661.912 62.5458 656.49 65.296 649.812 65.296C643.135 65.296 637.713 62.5458 637.713 59.1585C637.713 55.7712 643.135 53.021 649.812 53.021Z" fill="#FF1A61"/>
<path d="M580.054 578.001C587.231 578.001 593.059 582.086 593.059 587.117C593.059 592.148 587.231 596.232 580.054 596.232C572.876 596.232 567.049 592.148 567.049 587.117C567.049 582.086 572.876 578.001 580.054 578.001Z" fill="#FF1A61"/>
<path d="M106.881 217.188C111.449 217.188 115.157 220.138 115.157 223.771C115.157 227.404 111.449 230.354 106.881 230.354C102.314 230.354 98.6055 227.404 98.6055 223.771C98.6055 220.138 102.314 217.188 106.881 217.188Z" fill="#50E3C2"/>
<path d="M172.402 504.85C180.241 504.85 186.606 509.414 186.606 515.036C186.606 520.658 180.241 525.223 172.402 525.223C164.562 525.223 158.197 520.658 158.197 515.036C158.197 509.414 164.562 504.85 172.402 504.85Z" fill="#FF1A61"/>
<path d="M274.72 80.625C280.036 80.625 284.352 85.4201 284.352 91.3261C284.352 97.232 280.036 102.027 274.72 102.027C269.404 102.027 265.088 97.232 265.088 91.3261C265.088 85.4201 269.404 80.625 274.72 80.625Z" fill="#FF1A61"/>
<path d="M516.67 117.311C521.962 117.311 526.258 123.567 526.258 131.274C526.258 138.98 521.962 145.237 516.67 145.237C511.378 145.237 507.082 138.98 507.082 131.274C507.082 123.567 511.378 117.311 516.67 117.311Z" fill="#FF1A61"/>
<path d="M110.443 198.674C117.107 198.674 122.518 202.656 122.518 207.56C122.518 212.465 117.107 216.447 110.443 216.447C103.778 216.447 98.3672 212.465 98.3672 207.56C98.3672 202.656 103.778 198.674 110.443 198.674Z" fill="#FF1A61"/>
<path d="M448.107 518.206C453.999 518.206 458.783 522.639 458.783 528.1C458.783 533.561 453.999 537.995 448.107 537.995C442.215 537.995 437.432 533.561 437.432 528.1C437.432 522.639 442.215 518.206 448.107 518.206Z" fill="#FF1A61"/>
<path d="M399.615 240.075L386.334 230.941L393.636 208.946L406.917 218.08L399.615 240.075Z" fill="#FFE41D"/>
<path d="M381.794 425.929L370.215 416.744L376.582 394.625L388.161 403.811L381.794 425.929Z" fill="#FFE41D"/>
<path d="M13.1337 580.722L0 572.371L7.22156 552.261L20.3552 560.612L13.1337 580.722Z" fill="#50E3C2"/>
<path d="M231.821 236.15L219.637 225.52L226.336 199.925L238.52 210.554L231.821 236.15Z" fill="#FFE41D"/>
<path d="M554.452 339.051L551.771 325.051L553.246 291.339L555.927 305.339L554.452 339.051Z" fill="#FFE41D"/>
<path d="M217.731 321.726L210.117 309.015L214.304 278.405L221.918 291.116L217.731 321.726Z" fill="#FFE41D"/>
<path d="M311.848 192.271L323.332 202.939H300.363L311.848 192.271Z" fill="#2AB6FF"/>
<path d="M405.299 558.266L417.268 577.307H393.33L405.299 558.266Z" fill="#2AB6FF"/>
<path d="M694.373 206.122L713.263 224.851H675.482L694.373 206.122Z" fill="#2AB6FF"/>
<path d="M232.892 170.98L246.413 185.735H219.371L232.892 170.98Z" fill="#2AB6FF"/>
<path d="M573.079 411.989L583.497 431.32H562.662L573.079 411.989Z" fill="#2AB6FF"/>
<path d="M196.466 279.518L205.945 309.128H186.988L196.466 279.518Z" fill="#50E3C2"/>
<path d="M599.547 648.536C599.289 655.905 594.342 661.722 588.505 661.519C582.669 661.315 578.139 655.167 578.397 647.798C578.655 640.429 583.602 634.612 589.439 634.815C595.275 635.019 599.805 641.167 599.547 648.536Z" fill="#FF1A61"/>
<path d="M138.878 630.12C138.631 637.196 135.69 642.845 132.315 642.727C128.94 642.61 126.4 636.769 126.648 629.694C126.895 622.618 129.836 616.969 133.211 617.087C136.586 617.205 139.125 623.045 138.878 630.12Z" fill="#FF1A61"/>
<path d="M531.403 88.9325C531.139 96.5049 528.396 102.565 525.283 102.456C522.17 102.348 519.857 96.1113 520.122 88.5389C520.387 80.9665 523.129 74.9065 526.242 75.0151C529.355 75.1237 531.668 81.3601 531.403 88.9325Z" fill="#FF1A61"/>
<path d="M255.395 222.352C255.294 225.219 250.991 227.399 245.792 227.217C240.592 227.036 236.452 224.561 236.552 221.695C236.652 218.829 240.955 216.649 246.155 216.831C251.355 217.012 255.495 219.486 255.395 222.352Z" fill="#50E3C2"/>
<path d="M625.375 299.317C625.214 303.937 620.321 307.523 614.456 307.318C608.592 307.114 603.961 303.196 604.123 298.575C604.284 293.955 609.177 290.369 615.042 290.574C620.906 290.778 625.537 294.696 625.375 299.317Z" fill="#FF1A61"/>
<path d="M753.631 590.132C753.481 594.42 749.248 597.758 744.184 597.582C739.12 597.405 735.13 593.78 735.28 589.491C735.43 585.203 739.663 581.865 744.727 582.041C749.791 582.218 753.781 585.843 753.631 590.132Z" fill="#50E3C2"/>
<path d="M560.955 132.516C560.748 138.437 557.3 143.129 553.261 142.988C549.222 142.847 546.11 137.926 546.317 132.005C546.524 126.085 549.971 121.392 554.011 121.533C558.05 121.674 561.162 126.595 560.955 132.516Z" fill="#FF1A61"/>
<path d="M174.293 547.702C174.152 551.742 168.59 554.832 161.882 554.598C155.173 554.364 149.841 550.894 149.982 546.854C150.123 542.814 155.685 539.724 162.393 539.958C169.102 540.192 174.434 543.662 174.293 547.702Z" fill="#FF1A61"/>
<path d="M437.551 385.793L453.384 378.111L490.662 383.94L474.829 391.621L437.551 385.793Z" fill="#50E3C2"/>
<path d="M296.029 384.438L310.564 366.551L343.664 377.82L329.13 395.707L296.029 384.438Z" fill="#FFE41D"/>
<path d="M180.202 14.2297L192.093 0.397325L219.256 9.1788L207.365 23.0112L180.202 14.2297Z" fill="#50E3C2"/>
<path d="M599.067 135.299L610.368 119.751L635.934 129.409L624.633 144.956L599.067 135.299Z" fill="#FFE41D"/>
<path d="M370.191 658.843L382.36 643.509L410.037 653.139L397.868 668.473L370.191 658.843Z" fill="#50E3C2"/>
<path d="M415.316 252.515L431.33 237.939L468.331 247.552L452.316 262.127L415.316 252.515Z" fill="#FFE41D"/>
<path d="M537.901 331.337L508.807 339.934L509.478 320.733L537.901 331.337Z" fill="#2AB6FF"/>
<path d="M117.661 399.591L93.2471 406.59L93.7953 390.908L117.661 399.591Z" fill="#50E3C2"/>
<path d="M498.056 692.723L475.685 698.227L476.124 685.674L498.056 692.723Z" fill="#2AB6FF"/>
<path d="M508.192 122.925L490.54 134.724L491.407 109.926L508.192 122.925Z" fill="#50E3C2"/>
<path d="M296.584 581.418L271.985 598.131L273.212 563.031L296.584 581.418Z" fill="#2AB6FF"/>
<path d="M461.262 195.756L443.412 213.758L444.712 176.554L461.262 195.756Z" fill="#50E3C2"/>
<path d="M695.989 24.6626C714.655 35.7932 719.32 50.1187 699.021 66.2392C678.682 82.3905 662.245 87.0796 649.252 83.7877" stroke="#50E3C2" stroke-width="3.2156"/>
<path d="M154.908 420.054C134.189 404.05 125.607 387.865 147.03 381.937C153.329 380.194 158.747 379.437 163.368 379.522" stroke="#FF1A61" stroke-width="4.15566"/>
<path d="M384.99 465.741C373.561 480.667 366.794 506.057 373.305 545.095C373.612 546.935 374.005 548.684 374.481 550.347" stroke="#FFE41D" stroke-width="6.40862"/>
<path d="M365.633 208.518C398.476 181.688 418.251 140.658 394.954 100.079C388.988 89.6873 382.372 81.528 375.24 75.1726" stroke="#B91DFF" stroke-width="2.6299"/>
<path d="M457.798 345.383C437.358 374.713 424.848 415.344 461.785 416.684C464.116 416.768 466.368 416.75 468.546 416.638" stroke="#7ED321" stroke-width="3.85157"/>
<path d="M79.9475 295.62C38.2744 279.343 15.0439 183.78 15.1137 112.159" stroke="#50E3C2" stroke-width="5.86062"/>
<path d="M481.155 393.412C492.305 391.158 505.053 390.526 520.525 394.526C544.631 400.758 543.251 445.03 532.183 484.684" stroke="#FF1A61" stroke-width="1.16669"/>
<path d="M486.602 311.333C495.036 312.608 503.474 314.49 511.73 317.125C557.131 331.623 579.022 239.347 525.489 228.174C514.138 225.805 506.021 229.864 501.764 236.922" stroke="#FFE41D" stroke-width="4.3556"/>
<g opacity="0.999999">
<path d="M396.161 389.383C393.202 402.222 383.765 411.182 362.427 409.794C314.865 406.699 153.625 507.932 252.57 492.751C288.417 487.251 306.08 470.102 310.927 448.676" stroke="#B91DFF" stroke-width="4.25786"/>
</g>
<g opacity="0.895908">
<path d="M368.806 318.708C352.632 311.662 318.983 293.9 344.375 276.984C394.213 243.783 388.272 208.856 373.852 197.102" stroke="#7ED321" stroke-width="2.2062"/>
</g>
</svg>
