<svg width="1920" height="1141" viewBox="0 0 1920 1141" fill="none" xmlns="http://www.w3.org/2000/svg">
<g id="Hero">
<rect width="1920" height="676" transform="translate(0 72)" fill="white"/>
<g id="gradient">
<g id="gradient_2" filter="url(#filter0_f_4_10114)">
<ellipse id="Ellipse 1378" cx="1533.54" cy="418.76" rx="475.598" ry="364.76" fill="#C1BCFF"/>
<ellipse id="Ellipse 1379" cx="450.5" cy="450.5" rx="475.5" ry="312.5" fill="#BCFFBF"/>
<ellipse id="Ellipse 1380" cx="894.5" cy="213.5" rx="370.5" ry="280.5" fill="#A7ABFF"/>
<ellipse id="Ellipse 1385" cx="894.578" cy="513.676" rx="370.203" ry="283.757" fill="#B5FFFF"/>
<ellipse id="Ellipse 1381" cx="574.587" cy="638.109" rx="147.962" ry="113.362" fill="#A0FF73"/>
<ellipse id="Ellipse 1383" cx="172.091" cy="625.573" rx="172.091" ry="131.573" fill="#FFE973"/>
<ellipse id="Ellipse 1384" cx="1489.4" cy="542.5" rx="410.385" ry="314.568" fill="#CAAAFC"/>
<ellipse id="Ellipse 1382" cx="432.153" cy="542.499" rx="122.523" ry="63.1124" fill="#FFDA58"/>
<ellipse id="Ellipse 1386" cx="432.153" cy="518.646" rx="122.523" ry="63.1124" fill="#65ACFF"/>
</g>
</g>
<g id="Description">
<g id="Main_Content">
<g id="blending 1955483765" opacity="0.8">
<path id="Vector 6" d="M-45.7724 734.93C46.9351 641.451 134.522 605.554 266.168 607.082C394.006 608.565 439.867 732.852 567.702 734.554C834.431 738.106 736.791 263.994 996.428 202.794C1174.75 160.762 1286.82 368.287 1455.86 297.658C1563.68 252.611 1567.13 142.347 1671.95 90.6993C1884.11 -13.8472 2110.34 31.5241 2265.78 209.797" stroke="white"/>
<path id="Vector 7" d="M28.8175 743.436C184.689 672.836 285.838 650.811 456.952 650.21C615.967 649.652 702.279 766.235 856.635 728.02C1044.3 681.558 1016.36 402.171 1208.38 379.657C1300.22 368.888 1363.8 473.154 1441.25 422.623C1518.31 372.342 1439.21 265.556 1496.54 193.575C1624.57 32.8109 1788.96 352.291 1994.08 365.046C2081.01 370.451 2129.83 358.105 2216.81 353.657" stroke="white"/>
<path id="Vector 6 - Vector 7 - 49" d="M-41.7232 725.872C9.97289 677.969 57.7819 646.128 113.634 626.629C168.895 607.132 225.24 604.646 295.382 603.508C426.138 602.653 468.399 707.248 599.365 707.769C857.564 710.623 767.787 264.724 1018.54 204.044C1191.92 161.61 1294.66 353.803 1458.26 283.108C1567.06 232.416 1578.37 143.115 1688.07 94.6091C1894.13 -4.57381 2111.7 37.9819 2263.8 207.342" stroke="white"/>
<path id="Vector 6 - Vector 7 - 98" d="M-37.674 716.81C19.3643 667.743 69.9087 636.405 131.671 617.875C192.254 599.35 250.135 602.969 324.596 599.93C458.27 596.736 496.932 681.64 631.028 680.98C880.696 683.135 798.784 265.45 1040.65 205.291C1209.09 162.453 1302.51 339.315 1460.65 268.553C1570.44 212.217 1589.6 143.879 1704.2 98.5148C1904.14 4.69534 2113.06 44.4356 2261.82 204.882" stroke="white"/>
<path id="Vector 6 - Vector 7 - 146" d="M-33.625 707.759C28.7557 657.527 82.0355 626.693 149.709 609.132C215.612 591.578 275.03 601.304 353.809 596.363C490.403 590.831 525.464 656.043 662.691 654.202C903.828 655.658 829.78 266.186 1062.76 206.547C1226.26 163.308 1310.35 324.837 1463.05 254.01C1573.82 192.028 1600.83 144.654 1720.32 102.431C1914.16 13.9752 2114.42 50.8999 2259.85 202.433" stroke="white"/>
<path id="Vector 6 - Vector 7 - 195" d="M-29.58 698.704C38.1431 647.309 94.1583 616.979 167.743 600.387C238.966 583.804 299.922 599.636 383.019 592.794C522.531 584.922 553.992 630.443 694.35 627.421C926.956 628.178 860.772 266.92 1084.86 207.802C1243.42 164.16 1318.19 310.357 1465.44 239.463C1577.2 171.837 1612.06 145.426 1736.44 106.345C1924.17 23.2525 2115.78 57.3616 2257.86 199.982" stroke="white"/>
<path id="Vector 6 - Vector 7 - 293" d="M-21.4805 680.606C56.9272 626.883 118.413 597.559 203.819 582.906C285.684 568.265 349.713 596.309 441.448 585.665C586.797 573.115 611.058 579.254 757.677 573.868C973.221 573.229 922.765 268.398 1129.08 210.32C1277.76 165.874 1333.88 281.406 1470.23 210.381C1583.96 131.465 1634.52 146.98 1768.69 114.182C1944.2 41.8169 2118.5 70.295 2253.91 195.089" stroke="white"/>
<path id="Vector 6 - Vector 7 - 341" d="M-17.4301 671.56C66.3199 616.673 130.541 587.853 221.858 574.169C309.044 560.499 374.61 594.649 470.663 582.103C618.93 567.215 639.591 553.662 789.341 547.096C996.355 545.758 953.763 269.14 1151.19 211.583C1294.93 166.734 1341.73 266.934 1472.63 195.843C1587.34 111.283 1645.75 147.761 1784.82 118.104C1954.22 51.1026 2119.87 76.7652 2251.93 192.646" stroke="white"/>
<path id="Vector 6 - Vector 7 - 390" d="M-13.3857 662.523C75.7066 606.472 142.663 578.155 239.891 565.44C332.398 552.742 399.5 592.998 499.873 578.55C651.058 561.324 668.119 528.079 821 520.331C1019.48 518.295 984.754 269.891 1173.29 212.854C1312.1 167.603 1349.57 252.47 1475.02 181.313C1590.72 91.1085 1656.98 148.55 1800.94 122.035C1964.23 60.3964 2121.22 83.2435 2249.95 190.211" stroke="white"/>
<path id="Vector 6 - Vector 7 - 439" d="M-9.33577 653.492C85.0989 596.277 154.791 568.463 257.93 556.718C355.757 544.991 424.396 591.353 529.087 575.004C683.191 555.439 696.652 502.503 852.663 493.573C1042.62 490.838 1015.75 270.648 1195.4 214.132C1329.27 168.478 1357.41 238.013 1477.41 166.791C1594.1 70.941 1668.21 149.345 1817.06 125.972C1974.24 69.6971 2122.58 89.7287 2247.97 187.783" stroke="white"/>
<path id="Vector 6 - Vector 7 - 488" d="M-5.28819 644.473C94.4888 586.094 166.916 558.783 275.966 548.007C379.114 537.251 449.29 589.719 558.3 571.469C715.321 549.565 725.182 476.937 884.325 466.827C1065.75 463.393 1046.75 271.416 1217.51 215.421C1346.44 169.365 1365.26 223.567 1479.8 152.279C1597.48 50.7843 1679.44 150.152 1833.18 129.92C1984.26 79.0087 2123.94 96.2247 2245.99 185.366" stroke="white"/>
<path id="Vector 6 - Vector 7 - 537" d="M-1.23918 635.461C103.88 575.918 179.043 549.111 294.004 539.304C402.472 529.519 474.185 588.093 587.513 567.942C747.453 543.699 753.714 451.38 915.988 440.088C1088.88 435.956 1077.74 272.193 1239.62 216.717C1363.61 170.259 1373.1 209.129 1482.2 137.775C1600.86 30.6358 1690.67 150.966 1849.31 133.876C1994.27 88.3284 2125.31 102.729 2244.01 182.957" stroke="white"/>
<path id="Vector 6 - Vector 7 - 610" d="M3.67289 648.572C116.806 587.283 196.072 561.231 319.899 552.877C436.348 544.549 510.366 612.283 630.172 589.279C794.49 561.528 795.351 439.672 962.321 426.608C1122.41 421.428 1123.07 299.986 1271.62 245.291C1388.2 198.229 1383.71 214.101 1484.63 142.647C1604.77 27.0413 1706.36 178.817 1872.33 166.439C2008.13 128.936 2126.19 139.113 2239.88 205.971" stroke="white"/>
<path id="Vector 6 - Vector 7 - 659" d="M6.84348 659.786C125.319 597.333 207.32 571.784 337.058 564.4C458.828 557.043 534.383 630.883 658.508 605.978C825.744 575.888 823.005 434.34 993.105 420.096C1144.67 414.217 1153.19 320.988 1292.85 266.814C1404.49 219.349 1390.67 219.889 1486.15 148.369C1607.27 27.1186 1716.71 199.857 1887.58 190.621C2017.27 158.482 2126.67 165.843 2237.03 223.788" stroke="white"/>
<path id="Vector 6 - Vector 7 - 732" d="M11.5782 677.124C138.067 612.925 224.171 588.131 362.775 582.201C492.527 576.301 570.386 659.3 700.99 631.542C872.603 597.944 864.464 426.86 1039.26 410.843C1178.03 403.916 1198.35 353.007 1324.68 299.614C1428.91 251.546 1401.1 229.087 1488.4 157.469C1611.01 27.7509 1732.22 231.934 1910.43 227.41C2030.95 203.316 2127.37 206.455 2232.72 251.03" stroke="white"/>
<path id="Vector 6 - Vector 7 - 780" d="M14.7254 688.928C146.556 623.566 235.396 599.276 379.911 594.314C514.983 589.386 594.38 678.491 729.302 648.832C903.834 612.895 892.095 422.119 1070.02 404.921C1200.26 397.295 1228.44 374.6 1345.88 321.727C1445.18 273.257 1408.04 235.466 1489.89 163.782C1613.48 28.4189 1742.55 253.565 1925.65 252.183C2040.07 233.453 2127.83 233.775 2229.84 269.437" stroke="white"/>
<path id="Vector 6 - Vector 7 - 829" d="M17.8645 700.87C155.038 634.343 246.613 610.557 397.039 606.564C537.432 602.607 618.365 697.818 757.606 666.258C935.056 627.982 919.717 417.515 1100.77 399.135C1222.48 390.811 1258.53 396.33 1367.08 343.977C1461.44 295.105 1414.98 241.981 1491.38 170.231C1615.96 29.2236 1752.87 275.333 1940.86 277.092C2049.17 263.726 2128.28 261.233 2226.95 287.981" stroke="white"/>
<path id="Vector 6 - Vector 7 - 878" d="M20.9987 712.925C163.514 645.235 257.825 621.951 414.162 618.928C559.875 615.942 642.345 717.259 785.905 683.797C966.273 643.183 947.334 413.024 1131.52 393.463C1244.7 384.441 1288.61 418.173 1388.28 366.341C1477.69 317.066 1421.91 248.61 1492.86 176.794C1618.42 30.1418 1763.18 297.214 1956.07 302.115C2058.27 294.112 2128.73 288.804 2224.06 306.639" stroke="white"/>
<path id="Vector 6 - Vector 7 - 927" d="M24.1231 725.079C171.981 656.224 269.027 633.444 431.275 631.39C582.309 629.375 666.316 736.799 814.194 701.436C997.481 658.482 974.942 408.632 1162.26 387.89C1266.9 378.169 1318.68 440.115 1409.46 388.803C1493.94 339.126 1428.83 255.337 1494.33 183.455C1620.88 31.1585 1773.49 319.194 1971.27 327.237C2067.36 324.597 2129.17 316.473 2221.16 325.395" stroke="white"/>
</g>
</g>
</g>
</g>
<defs>
<filter id="filter0_f_4_10114" x="-308" y="-350" width="2600.14" height="1490.07" filterUnits="userSpaceOnUse" color-interpolation-filters="sRGB">
<feFlood flood-opacity="0" result="BackgroundImageFix"/>
<feBlend mode="normal" in="SourceGraphic" in2="BackgroundImageFix" result="shape"/>
<feGaussianBlur stdDeviation="141.5" result="effect1_foregroundBlur_4_10114"/>
</filter>
</defs>
</svg>
