<svg width="1440" height="1141" viewBox="0 0 1440 1141" fill="none" xmlns="http://www.w3.org/2000/svg">
<rect width="1440" height="676" transform="translate(0 72)" fill="white"/>
<g filter="url(#filter0_f_4_10468)">
<ellipse cx="1533.54" cy="418.76" rx="475.598" ry="364.76" fill="#C1BCFF"/>
<ellipse cx="450.5" cy="450.5" rx="475.5" ry="312.5" fill="#BCFFBF"/>
<ellipse cx="894.5" cy="213.5" rx="370.5" ry="280.5" fill="#A7ABFF"/>
<ellipse cx="894.578" cy="513.676" rx="370.203" ry="283.757" fill="#B5FFFF"/>
<ellipse cx="574.587" cy="638.109" rx="147.962" ry="113.362" fill="#A0FF73"/>
<ellipse cx="172.091" cy="625.573" rx="172.091" ry="131.573" fill="#FFE973"/>
<ellipse cx="1489.4" cy="542.5" rx="410.385" ry="314.568" fill="#CAAAFC"/>
<ellipse cx="432.153" cy="542.499" rx="122.523" ry="63.1124" fill="#FFDA58"/>
<ellipse cx="432.153" cy="518.646" rx="122.523" ry="63.1124" fill="#65ACFF"/>
</g>
<g opacity="0.8">
<path d="M-286.772 734.93C-194.065 641.451 -106.478 605.554 25.1678 607.082C153.006 608.565 198.867 732.852 326.702 734.554C593.431 738.106 495.791 263.994 755.428 202.794C933.747 160.762 1045.82 368.287 1214.86 297.658C1322.68 252.611 1326.13 142.347 1430.95 90.6993C1643.11 -13.8472 1869.34 31.5241 2024.78 209.797" stroke="white"/>
<path d="M-212.182 743.436C-56.3111 672.836 44.8383 650.811 215.952 650.21C374.967 649.652 461.279 766.235 615.635 728.02C803.3 681.558 775.361 402.171 967.376 379.657C1059.22 368.888 1122.8 473.154 1200.25 422.623C1277.31 372.342 1198.21 265.556 1255.54 193.575C1383.57 32.8109 1547.96 352.291 1753.08 365.046C1840.01 370.451 1888.83 358.105 1975.81 353.657" stroke="white"/>
<path d="M-282.723 725.872C-231.027 677.969 -183.218 646.128 -127.366 626.629C-72.1048 607.132 -15.7598 604.646 54.3818 603.508C185.138 602.653 227.399 707.248 358.365 707.769C616.564 710.623 526.787 264.724 777.537 204.044C950.917 161.61 1053.66 353.803 1217.26 283.108C1326.06 232.416 1337.37 143.115 1447.07 94.6091C1653.13 -4.57381 1870.7 37.9819 2022.8 207.342" stroke="white"/>
<path d="M-278.674 716.81C-221.636 667.743 -171.091 636.405 -109.329 617.875C-48.7463 599.35 9.13538 602.969 83.5957 599.93C217.27 596.736 255.932 681.64 390.028 680.98C639.696 683.135 557.784 265.45 799.647 205.291C968.087 162.453 1061.51 339.315 1219.65 268.553C1329.44 212.217 1348.6 143.879 1463.2 98.5148C1663.14 4.69534 1872.06 44.4356 2020.82 204.882" stroke="white"/>
<path d="M-274.625 707.759C-212.244 657.527 -158.964 626.693 -91.291 609.132C-25.388 591.578 34.0305 601.304 112.809 596.363C249.403 590.831 284.464 656.043 421.691 654.202C662.828 655.658 588.78 266.186 821.755 206.547C985.256 163.308 1069.35 324.837 1222.05 254.01C1332.82 192.028 1359.83 144.654 1479.32 102.431C1673.16 13.9752 1873.42 50.8999 2018.85 202.433" stroke="white"/>
<path d="M-270.58 698.704C-202.857 647.309 -146.842 616.979 -73.2574 600.387C-2.03369 583.804 58.9215 599.636 142.019 592.794C281.531 584.922 312.992 630.443 453.35 627.421C685.956 628.178 619.772 266.92 843.86 207.802C1002.42 164.16 1077.19 310.357 1224.44 239.463C1336.2 171.837 1371.06 145.426 1495.44 106.345C1683.17 23.2525 1874.78 57.3616 2016.86 199.982" stroke="white"/>
<path d="M-262.481 680.606C-184.073 626.883 -122.587 597.559 -37.1807 582.906C44.6844 568.265 108.713 596.309 200.448 585.665C345.797 573.115 370.058 579.254 516.677 573.868C732.221 573.229 681.765 268.398 888.08 210.32C1036.76 165.874 1092.88 281.406 1229.23 210.381C1342.96 131.465 1393.52 146.98 1527.69 114.182C1703.2 41.8169 1877.5 70.295 2012.91 195.089" stroke="white"/>
<path d="M-258.43 671.56C-174.68 616.673 -110.459 587.853 -19.1417 574.169C68.0441 560.499 133.61 594.649 229.663 582.103C377.93 567.215 398.591 553.662 548.341 547.096C755.355 545.758 712.763 269.14 910.19 211.583C1053.93 166.734 1100.73 266.934 1231.63 195.843C1346.34 111.283 1404.75 147.761 1543.82 118.104C1713.22 51.1026 1878.87 76.7652 2010.93 192.646" stroke="white"/>
<path d="M-254.386 662.523C-165.293 606.472 -98.3365 578.155 -1.10868 565.44C91.3978 552.742 158.5 592.998 258.873 578.55C410.058 561.324 427.119 528.079 580 520.331C778.482 518.295 743.754 269.891 932.294 212.854C1071.1 167.603 1108.57 252.47 1234.02 181.313C1349.72 91.1085 1415.98 148.55 1559.94 122.035C1723.23 60.3964 1880.22 83.2435 2008.95 190.211" stroke="white"/>
<path d="M-250.336 653.492C-155.901 596.277 -86.2089 568.463 16.9299 556.718C114.757 544.991 183.396 591.353 288.087 575.004C442.191 555.439 455.652 502.503 611.663 493.573C801.615 490.838 774.751 270.648 954.404 214.132C1088.27 168.478 1116.41 238.013 1236.41 166.791C1353.1 70.941 1427.21 149.345 1576.06 125.972C1733.24 69.6971 1881.58 89.7287 2006.97 187.783" stroke="white"/>
<path d="M-246.288 644.473C-146.511 586.094 -74.0836 558.783 34.966 548.007C138.114 537.251 208.29 589.719 317.3 571.469C474.321 549.565 484.182 476.937 643.325 466.827C824.746 463.393 805.746 271.416 976.511 215.421C1105.44 169.365 1124.26 223.567 1238.8 152.279C1356.48 50.7843 1438.44 150.152 1592.18 129.92C1743.26 79.0087 1882.94 96.2247 2004.99 185.366" stroke="white"/>
<path d="M-242.239 635.461C-137.12 575.918 -61.9568 549.111 53.0037 539.304C161.472 529.519 233.185 588.093 346.513 567.942C506.453 543.699 512.714 451.38 674.988 440.088C847.878 435.956 836.742 272.193 998.62 216.717C1122.61 170.259 1132.1 209.129 1241.2 137.775C1359.86 30.6358 1449.67 150.966 1608.31 133.876C1753.27 88.3284 1884.31 102.729 2003.01 182.957" stroke="white"/>
<path d="M-237.327 648.572C-124.194 587.283 -44.9282 561.231 78.8986 552.877C195.348 544.549 269.366 612.283 389.172 589.279C553.49 561.528 554.351 439.672 721.321 426.608C881.414 421.428 882.075 299.986 1030.62 245.291C1147.2 198.229 1142.71 214.101 1243.63 142.647C1363.77 27.0413 1465.36 178.817 1631.33 166.439C1767.13 128.936 1885.19 139.113 1998.88 205.971" stroke="white"/>
<path d="M-234.157 659.786C-115.681 597.333 -33.6799 571.784 96.0578 564.4C217.828 557.043 293.383 630.883 417.508 605.978C584.744 575.888 582.005 434.34 752.105 420.096C903.668 414.217 912.192 320.988 1051.85 266.814C1163.49 219.349 1149.67 219.889 1245.15 148.369C1366.27 27.1186 1475.71 199.857 1646.58 190.621C1776.27 158.482 1885.67 165.843 1996.03 223.788" stroke="white"/>
<path d="M-229.422 677.124C-102.933 612.925 -16.8286 588.131 121.775 582.201C251.527 576.301 329.386 659.3 459.99 631.542C631.603 597.944 623.464 426.86 798.26 410.843C937.027 403.916 957.348 353.007 1083.68 299.614C1187.91 251.546 1160.1 229.087 1247.4 157.469C1370.01 27.7509 1491.22 231.934 1669.43 227.41C1789.95 203.316 1886.37 206.455 1991.72 251.03" stroke="white"/>
<path d="M-226.275 688.928C-94.4437 623.566 -5.60359 599.276 138.911 594.314C273.983 589.386 353.38 678.491 488.302 648.832C662.834 612.895 651.095 422.119 829.021 404.921C959.257 397.295 987.442 374.6 1104.88 321.727C1204.18 273.257 1167.04 235.466 1248.89 163.782C1372.48 28.4189 1501.55 253.565 1684.65 252.183C1799.07 233.453 1886.83 233.775 1988.84 269.437" stroke="white"/>
<path d="M-223.136 700.87C-85.9623 634.344 5.61326 610.557 156.039 606.564C296.432 602.607 377.365 697.818 516.606 666.258C694.056 627.982 678.717 417.515 859.774 399.136C981.48 390.812 1017.53 396.33 1126.08 343.977C1220.44 295.105 1173.98 241.981 1250.38 170.231C1374.96 29.2239 1511.87 275.333 1699.86 277.093C1808.17 263.726 1887.28 261.233 1985.95 287.982" stroke="white"/>
<path d="M-220.001 712.925C-77.4858 645.235 16.8252 621.951 173.162 618.928C318.875 615.942 401.345 717.259 544.905 683.797C725.273 643.183 706.334 413.024 890.523 393.463C1003.7 384.441 1047.61 418.173 1147.28 366.341C1236.69 317.066 1180.91 248.61 1251.86 176.794C1377.42 30.1418 1522.18 297.214 1715.07 302.115C1817.27 294.112 1887.73 288.804 1983.06 306.639" stroke="white"/>
<path d="M-216.875 725.078C-69.0171 656.224 28.0292 633.444 190.277 631.39C341.311 629.375 425.318 736.798 573.196 701.436C756.483 658.482 733.944 408.632 921.263 387.89C1025.91 378.169 1077.68 440.114 1168.46 388.803C1252.94 339.125 1187.83 255.337 1253.33 183.455C1379.88 31.1583 1532.49 319.194 1730.27 327.237C1826.36 324.597 1888.17 316.473 1980.16 325.395" stroke="white"/>
</g>
<defs>
<filter id="filter0_f_4_10468" x="-308" y="-350" width="2600.14" height="1490.07" filterUnits="userSpaceOnUse" color-interpolation-filters="sRGB">
<feFlood flood-opacity="0" result="BackgroundImageFix"/>
<feBlend mode="normal" in="SourceGraphic" in2="BackgroundImageFix" result="shape"/>
<feGaussianBlur stdDeviation="141.5" result="effect1_foregroundBlur_4_10468"/>
</filter>
</defs>
</svg>
