<svg width="744" height="910" viewBox="0 0 744 910" fill="none" xmlns="http://www.w3.org/2000/svg">
<rect width="744" height="512" transform="translate(0 75)" fill="white"/>
<g filter="url(#filter0_f_4_11891)">
<ellipse cx="450.5" cy="322.977" rx="475.5" ry="233.682" fill="#BCFFBF"/>
<ellipse cx="894.5" cy="145.753" rx="370.5" ry="209.753" fill="#A7ABFF"/>
<ellipse cx="894.578" cy="370.219" rx="370.203" ry="212.188" fill="#B5FFFF"/>
<ellipse cx="574.587" cy="463.267" rx="147.962" ry="84.7698" fill="#A0FF73"/>
<ellipse cx="172.091" cy="453.893" rx="172.091" ry="98.3874" fill="#FFE973"/>
<ellipse cx="432.153" cy="391.771" rx="122.523" ry="47.1942" fill="#FFDA58"/>
<ellipse cx="432.153" cy="373.935" rx="122.523" ry="47.1942" fill="#65ACFF"/>
</g>
<g opacity="0.8">
<path d="M-320.691 557.584C-228.74 481.549 -141.46 452.754 -9.84688 455.029C117.96 457.238 164.769 559.643 292.575 562.032C559.242 567.016 457.958 176.976 717.034 128.738C894.967 95.609 1008.61 266.873 1177.05 210.191C1284.48 174.04 1287.08 83.5313 1391.46 41.937C1602.74 -42.259 1829.24 -3.25173 1986.01 144.329" stroke="white"/>
<path d="M-246.06 565.147C-90.7887 508.387 10.156 491.086 181.208 491.92C340.165 492.695 427.352 589.087 581.36 558.906C768.601 522.213 738.505 292.597 930.282 275.6C1022.01 267.47 1086.37 353.574 1163.41 312.684C1240.06 271.997 1160.16 183.703 1216.91 125.046C1343.65 -5.96119 1510.46 257.632 1715.61 269.695C1802.55 274.807 1851.26 265.048 1938.18 262.07" stroke="white"/>
<path d="M-316.713 550.178C-265.406 511.247 -217.86 485.474 -162.178 469.896C-107.086 454.316 -50.7791 452.711 19.3301 452.321C150.036 452.633 193.094 538.841 324.02 540.285C582.154 544.629 488.951 177.815 739.146 129.936C912.138 96.4385 1016.34 255.041 1179.33 198.263C1287.7 157.484 1298.31 84.2492 1407.61 45.2724C1612.82 -34.5672 1830.65 2.06123 1984.02 142.298" stroke="white"/>
<path d="M-312.737 542.769C-256.098 502.923 -205.813 477.584 -144.215 462.849C-83.7969 448.107 -25.9065 451.528 48.5052 449.61C182.11 448.024 221.417 518.036 355.463 518.534C605.064 522.239 519.941 178.652 761.256 131.131C929.308 97.2645 1024.07 243.206 1181.61 186.331C1290.93 140.925 1309.55 84.9636 1423.75 48.6042C1622.91 -26.8788 1832.06 7.37073 1982.02 140.263" stroke="white"/>
<path d="M-308.759 535.368C-246.788 494.608 -193.765 469.704 -126.251 455.81C-60.5061 441.907 -1.03213 450.354 77.6821 446.908C214.186 443.424 249.741 497.24 386.908 496.792C627.975 499.858 550.933 179.497 783.368 132.335C946.479 98.0992 1031.8 231.379 1183.89 174.408C1294.15 124.375 1320.78 85.6868 1439.9 51.9448C1632.99 -19.1817 1833.47 12.689 1980.02 138.237" stroke="white"/>
<path d="M-304.784 527.966C-237.483 486.291 -181.721 461.822 -108.29 448.769C-37.2192 435.705 23.8383 449.177 106.855 444.203C246.259 438.822 278.062 476.442 418.35 475.048C650.883 477.474 581.921 180.34 805.476 133.536C963.646 98.9319 1039.53 219.55 1186.17 162.483C1297.37 107.823 1332.01 86.4079 1456.05 55.2833C1643.07 -11.4867 1834.88 18.0051 1978.02 136.209" stroke="white"/>
<path d="M-296.827 513.168C-218.862 469.665 -157.624 446.065 -72.3601 434.695C9.36396 423.309 73.5886 446.832 165.21 438.803C310.413 429.626 334.713 434.854 481.242 431.569C696.708 432.715 643.906 182.034 849.701 135.947C997.99 100.605 1054.99 195.901 1190.74 138.641C1303.82 74.7271 1354.48 87.8582 1488.35 61.9685C1663.24 3.91148 1837.71 28.6456 1974.03 132.161" stroke="white"/>
<path d="M-292.849 505.772C-209.553 461.355 -145.576 438.189 -54.3962 427.661C32.6543 417.113 98.4626 445.662 194.387 436.105C342.488 425.031 363.037 414.062 512.686 409.832C719.62 410.338 674.898 182.883 871.812 137.155C1015.16 101.445 1062.72 184.079 1193.02 126.723C1307.04 58.1818 1365.71 88.5861 1504.5 65.3139C1673.32 11.6134 1839.12 33.9686 1972.04 130.139" stroke="white"/>
<path d="M-288.876 498.383C-200.248 453.052 -133.533 430.32 -36.4364 420.634C55.9406 410.925 123.332 444.499 223.559 433.414C374.56 420.442 391.357 393.278 544.127 388.101C742.527 387.968 705.885 183.74 893.919 138.37C1032.33 102.291 1070.44 172.264 1195.29 114.812C1310.26 41.6433 1376.94 89.3208 1520.65 68.666C1683.4 19.322 1840.52 39.2984 1970.04 128.125" stroke="white"/>
<path d="M-284.898 491C-190.939 444.754 -121.486 422.457 -18.4728 413.612C79.2306 404.742 148.206 443.341 252.735 430.729C406.635 415.859 419.681 372.499 575.571 366.377C765.438 365.604 736.876 184.602 916.03 139.59C1049.5 103.143 1078.17 160.455 1197.58 102.906C1313.48 25.1104 1388.18 90.0611 1536.79 72.0237C1693.49 27.0362 1841.93 44.6338 1968.04 126.116" stroke="white"/>
<path d="M-280.923 483.625C-181.633 436.465 -109.441 414.603 -0.511634 406.6C102.518 398.568 173.077 442.193 281.909 428.053C438.708 411.285 448.003 351.729 607.014 344.661C788.347 343.248 767.865 185.473 938.139 140.82C1066.67 104.004 1085.9 148.654 1199.85 91.0089C1316.7 8.58637 1399.41 90.8103 1552.94 75.3904C1703.57 34.7594 1843.34 49.9781 1966.04 124.116" stroke="white"/>
<path d="M-276.945 476.257C-172.323 428.183 -97.3927 406.755 17.4531 399.594C125.809 392.401 197.952 441.051 311.086 425.383C470.785 406.718 476.328 330.965 638.459 322.952C811.259 320.899 798.857 186.351 960.251 142.056C1083.84 104.871 1093.63 136.861 1202.14 79.1187C1319.93 -7.93093 1410.64 91.5663 1569.09 78.7638C1713.65 42.4893 1844.75 55.3291 1964.04 122.123" stroke="white"/>
<path d="M-271.931 487.06C-159.311 437.615 -80.2739 416.838 43.4465 410.939C159.792 405.004 234.31 461.193 353.898 443.234C517.946 421.722 517.862 321.675 684.674 312.243C844.673 309.231 844.392 209.522 992.466 165.765C1108.64 128.028 1104.27 141.025 1204.61 83.1383C1323.81 -10.852 1426.54 114.555 1592.36 105.679C1727.83 75.939 1845.92 85.2105 1960.1 140.987" stroke="white"/>
<path d="M-268.676 496.293C-150.725 445.933 -68.9489 425.591 60.6879 420.533C182.36 415.437 258.462 476.651 382.352 457.164C549.299 433.755 545.463 317.512 715.396 307.134C866.862 303.482 874.661 227 1013.85 183.602C1125.09 145.495 1111.28 145.831 1206.16 87.8483C1326.31 -10.7691 1437.05 131.911 1607.79 125.652C1737.19 100.269 1846.61 107.162 1957.38 155.594" stroke="white"/>
<path d="M-263.808 510.565C-137.86 458.834 -51.9766 439.144 86.5348 435.349C216.197 431.51 294.674 500.263 425.018 478.484C596.314 452.228 586.851 311.691 761.464 299.895C900.13 295.283 920.05 253.641 1045.92 210.78C1149.75 172.121 1121.77 153.465 1208.49 95.3371C1330.05 -10.221 1452.8 158.369 1630.91 156.036C1751.21 137.188 1847.62 140.512 1953.28 177.928" stroke="white"/>
<path d="M-260.57 520.282C-129.29 467.636 -40.6684 448.381 103.759 445.427C238.748 442.428 318.808 516.206 453.455 492.9C627.65 464.746 614.436 308.012 792.17 295.271C922.303 290.02 950.302 271.604 1067.29 229.101C1166.18 190.073 1128.76 158.756 1210.03 100.532C1332.53 -9.65331 1463.29 176.21 1646.32 176.495C1760.56 162.003 1848.3 162.948 1950.55 193.02" stroke="white"/>
<path d="M-257.341 530.112C-120.729 476.552 -29.3691 457.731 120.975 455.619C261.29 453.458 342.934 532.261 481.883 507.428C658.977 477.376 642.012 304.447 822.866 290.759C944.466 284.868 980.545 289.679 1088.66 247.535C1182.6 208.138 1135.75 164.159 1211.56 105.839C1335.01 -8.9732 1473.78 194.163 1661.73 197.065C1769.9 186.93 1848.96 185.497 1947.8 208.224" stroke="white"/>
<path d="M-254.114 540.034C-112.171 485.56 -18.072 467.173 138.189 465.903C283.83 464.581 367.058 548.41 510.309 522.048C690.303 490.099 669.586 300.973 853.56 286.34C966.627 279.81 1010.79 307.847 1110.02 266.061C1199.02 226.296 1142.72 169.656 1213.09 111.239C1337.48 -8.20042 1484.26 212.209 1677.12 217.729C1779.23 211.95 1849.62 208.138 1945.06 223.521" stroke="white"/>
<path d="M-250.895 550.037C-103.621 494.649 -6.78398 476.697 155.393 476.268C306.361 475.785 391.172 564.639 538.726 536.75C721.619 502.903 697.15 297.581 884.246 282.002C988.779 274.832 1041.02 326.096 1131.37 284.668C1215.43 244.534 1149.69 175.233 1214.61 116.72C1339.94 -7.34671 1494.74 230.336 1692.51 238.473C1788.55 237.051 1850.27 230.86 1942.3 238.899" stroke="white"/>
</g>
<defs>
<filter id="filter0_f_4_11891" x="-308" y="-347" width="2600.14" height="1257" filterUnits="userSpaceOnUse" color-interpolation-filters="sRGB">
<feFlood flood-opacity="0" result="BackgroundImageFix"/>
<feBlend mode="normal" in="SourceGraphic" in2="BackgroundImageFix" result="shape"/>
<feGaussianBlur stdDeviation="141.5" result="effect1_foregroundBlur_4_11891"/>
</filter>
</defs>
</svg>
