<svg width="320" height="895" viewBox="0 0 320 895" fill="none" xmlns="http://www.w3.org/2000/svg">
<rect width="320" height="538" transform="translate(0 60)" fill="white"/>
<g filter="url(#filter0_f_4_16584)">
<ellipse cx="401.5" cy="307.977" rx="475.5" ry="233.682" fill="#BCFFBF"/>
<ellipse cx="123.091" cy="438.893" rx="172.091" ry="98.3874" fill="#FFE973"/>
<ellipse cx="383.153" cy="376.771" rx="122.523" ry="47.1942" fill="#FFDA58"/>
<ellipse cx="383.153" cy="358.935" rx="122.523" ry="47.1942" fill="#65ACFF"/>
</g>
<g opacity="0.8">
<path d="M-532.842 558.825C-480.226 493.757 -430.809 468.48 -356.842 468.8C-285.016 469.111 -259.939 554.678 -188.115 555.14C-38.2539 556.104 -90.4732 229.261 55.7646 185.551C156.2 155.531 218.018 298.208 313.402 248.492C374.237 216.784 376.795 140.624 435.98 104.375C555.783 30.9983 682.651 61.0654 769.003 183.3" stroke="white"/>
<path d="M-490.977 564.282C-402.995 514.661 -346.034 498.887 -249.878 497.517C-160.52 496.244 -112.671 576.265 -25.7213 549.015C79.9911 515.885 65.8513 323.116 173.875 306.497C225.546 298.548 260.687 370.192 304.49 334.866C348.076 299.716 304.225 226.418 336.839 176.393C409.68 64.6664 500.269 284.359 615.46 292.021C664.276 295.268 691.779 286.47 740.682 282.913" stroke="white"/>
<path d="M-530.517 552.548C-501.201 519.18 -474.158 496.927 -442.665 483.15C-411.503 469.378 -379.828 467.347 -340.407 466.17C-266.928 464.849 -243.764 536.839 -170.174 536.468C-25.1029 536.997 -73.0607 229.592 68.1802 186.291C165.843 156.021 222.506 288.162 314.828 238.432C376.248 202.82 383.1 141.093 445.017 106.985C561.358 37.3462 683.379 65.5174 767.904 181.616" stroke="white"/>
<path d="M-528.191 546.267C-495.865 512.066 -467.288 490.145 -432.479 477.005C-398.333 463.874 -365.828 466.05 -323.971 463.536C-248.838 460.584 -227.587 518.997 -152.232 517.792C-11.95 517.886 -55.6463 229.92 80.5978 187.028C175.487 156.508 226.996 278.114 316.256 228.368C378.262 188.853 389.408 141.557 454.057 109.592C566.935 43.6909 684.109 69.9662 766.807 179.928" stroke="white"/>
<path d="M-525.866 539.994C-490.532 504.96 -460.421 483.371 -422.296 470.867C-385.165 458.377 -351.831 464.761 -307.536 460.91C-230.75 456.327 -211.413 501.162 -134.291 499.124C1.20085 498.784 -38.2341 230.256 93.0132 187.773C185.13 157.002 231.484 268.073 317.682 218.312C380.274 174.894 395.714 142.03 463.095 112.207C572.51 50.0431 684.837 74.4226 765.708 178.249" stroke="white"/>
<path d="M-523.541 533.72C-485.199 497.852 -453.553 476.595 -412.112 464.727C-371.997 452.878 -337.834 463.47 -291.101 458.282C-212.662 452.067 -195.238 483.325 -116.35 480.454C14.3517 479.679 -20.8217 230.59 105.429 188.516C194.772 157.495 235.972 258.03 319.107 208.254C382.285 160.932 402.02 142.5 472.133 114.819C578.085 56.3933 685.565 78.8768 764.609 176.567" stroke="white"/>
<path d="M-518.888 521.177C-474.529 483.642 -439.815 463.05 -391.741 452.454C-345.658 441.888 -309.835 460.895 -258.228 453.033C-176.483 443.556 -162.885 447.659 -80.4657 443.122C40.657 441.477 14.0065 231.264 130.263 190.008C214.06 158.486 244.951 237.951 321.963 188.145C386.312 133.017 414.635 143.448 490.212 120.051C589.239 69.1008 687.024 87.7926 762.415 173.21" stroke="white"/>
<path d="M-516.563 514.908C-469.196 476.539 -432.948 456.279 -381.558 446.32C-332.49 436.394 -295.838 459.61 -241.793 450.41C-158.396 439.302 -146.71 429.828 -62.5254 424.457C53.8075 422.378 31.4185 231.603 142.678 190.756C223.702 158.984 249.438 227.914 323.388 178.093C388.323 119.061 420.94 143.924 499.249 122.669C594.813 75.4566 687.751 92.2525 761.315 171.534" stroke="white"/>
<path d="M-514.239 508.645C-463.863 469.443 -426.08 449.515 -371.375 440.192C-319.323 430.907 -281.841 458.331 -225.359 447.794C-140.308 435.054 -130.536 412.003 -44.5853 405.799C66.9579 403.285 48.8304 231.949 155.094 191.511C233.344 159.489 253.925 217.883 324.814 168.046C390.334 105.111 427.245 144.406 508.286 125.293C600.388 81.8187 688.479 96.7187 760.216 169.864" stroke="white"/>
<path d="M-511.913 502.386C-458.529 462.351 -419.212 442.755 -361.19 434.069C-306.153 425.425 -267.842 457.056 -208.923 445.182C-122.219 430.811 -114.36 394.182 -26.6434 387.145C80.1099 384.196 66.2439 232.299 167.51 192.27C242.988 159.997 258.414 207.856 326.241 158.005C392.347 91.1663 433.552 144.893 517.325 127.922C605.964 88.185 689.208 101.189 759.118 168.198" stroke="white"/>
<path d="M-509.589 496.135C-453.196 455.266 -412.345 436.003 -351.008 427.953C-292.986 419.95 -253.846 455.789 -192.489 442.578C-104.133 426.576 -98.186 376.369 -8.70383 368.499C93.2598 365.115 83.6552 232.656 179.925 193.036C252.629 160.513 262.901 197.837 327.665 147.97C394.357 77.2287 439.857 145.387 526.362 130.558C611.538 94.559 689.935 105.667 758.018 166.54" stroke="white"/>
<path d="M-507.264 489.89C-447.862 448.187 -405.477 429.256 -340.823 421.842C-279.818 414.48 -239.848 454.527 -176.054 439.979C-86.0442 422.345 -82.0106 358.562 9.23742 349.858C106.411 346.04 101.068 233.019 192.341 193.808C262.272 161.035 267.39 187.823 329.092 137.941C396.369 63.2965 446.163 145.887 535.4 133.2C617.113 100.938 690.663 110.151 756.92 164.887" stroke="white"/>
<path d="M-504.575 498.916C-440.661 455.962 -395.974 437.53 -326.347 431.07C-260.865 424.67 -219.651 471.028 -152.2 454.475C-59.7115 434.394 -58.5473 350.245 35.3494 340.292C125.339 335.821 126.388 251.958 210.165 213.36C275.937 180.212 273.322 191.197 330.432 141.292C398.588 60.7925 454.823 165.03 548.158 155.557C624.677 128.902 690.956 135.27 754.473 180.803" stroke="white"/>
<path d="M-502.857 506.642C-435.935 462.855 -389.714 444.755 -316.77 438.932C-248.303 433.172 -206.26 483.739 -136.372 465.848C-42.2305 444.136 -42.9794 346.409 52.6832 335.623C137.883 330.717 143.193 266.292 221.974 228.104C284.972 194.705 277.203 195.155 331.251 145.236C399.992 60.8322 460.522 179.502 556.589 172.17C629.645 149.253 691.077 153.726 752.767 193.122" stroke="white"/>
<path d="M-500.294 518.587C-428.858 473.55 -380.336 455.949 -302.418 451.08C-229.475 446.281 -186.187 503.16 -112.643 483.263C-16.0223 459.105 -19.6407 341.012 78.6706 328.976C156.685 323.418 168.388 288.15 239.674 250.575C298.512 216.801 283.011 201.448 332.466 151.506C402.086 61.2478 469.057 201.565 569.222 197.447C637.084 180.136 691.246 181.765 750.195 211.957" stroke="white"/>
<path d="M-498.591 526.722C-424.147 480.851 -374.091 463.582 -292.857 459.349C-216.929 455.191 -172.812 516.278 -96.8309 495.044C1.44318 469.254 -4.08815 337.584 95.989 324.715C169.214 318.722 185.178 302.893 251.467 265.727C307.532 231.703 286.877 205.814 333.27 155.857C403.475 61.6953 474.741 216.445 577.637 214.468C642.036 200.895 691.351 200.628 748.474 224.684" stroke="white"/>
<path d="M-496.895 534.95C-419.443 488.246 -367.852 471.309 -283.302 467.713C-204.39 464.196 -159.443 529.49 -81.0245 506.92C18.9025 479.499 11.4581 334.25 113.301 320.548C181.736 314.121 201.962 317.73 263.254 280.973C316.546 246.698 290.736 210.275 334.067 160.303C404.858 62.2375 480.418 231.418 586.046 231.584C646.983 221.749 691.451 219.586 746.747 237.506" stroke="white"/>
<path d="M-495.2 543.257C-414.739 495.719 -361.614 479.115 -273.748 476.154C-191.852 473.279 -146.076 542.781 -65.2197 518.873C36.3603 489.821 27.003 330.995 130.612 316.46C194.257 309.598 218.744 332.645 275.039 296.297C325.558 261.772 294.594 214.813 334.863 164.826C406.24 62.8576 486.094 246.47 594.454 248.778C651.928 242.681 691.549 238.622 745.018 250.405" stroke="white"/>
<path d="M-493.512 551.632C-410.043 503.26 -355.383 486.988 -264.201 484.664C-179.32 482.43 -132.715 556.139 -49.4215 530.895C53.8115 500.211 42.5411 327.808 147.916 312.439C206.771 305.142 235.52 347.629 286.818 311.689C334.564 276.914 298.445 219.42 335.652 169.418C407.615 63.5457 491.763 261.59 602.855 266.04C656.866 263.68 691.64 257.726 743.282 263.373" stroke="white"/>
</g>
<defs>
<filter id="filter0_f_4_16584" x="-357" y="-362" width="2600.14" height="1257" filterUnits="userSpaceOnUse" color-interpolation-filters="sRGB">
<feFlood flood-opacity="0" result="BackgroundImageFix"/>
<feBlend mode="normal" in="SourceGraphic" in2="BackgroundImageFix" result="shape"/>
<feGaussianBlur stdDeviation="141.5" result="effect1_foregroundBlur_4_16584"/>
</filter>
</defs>
</svg>
