<svg width="21" height="20" viewBox="0 0 21 20" fill="none" xmlns="http://www.w3.org/2000/svg">
<path d="M10.5 1.00049C8.055 1.00049 7.74975 1.01174 6.78975 1.05449C5.83125 1.09949 5.17875 1.25024 4.605 1.47299C4.01325 1.70249 3.51075 2.01074 3.0105 2.51099C2.51025 3.01124 2.20125 3.51299 1.9725 4.10549C1.74975 4.67924 1.59825 5.33174 1.554 6.29024C1.509 7.25024 1.5 7.55549 1.5 10.0005C1.5 12.4455 1.51125 12.7507 1.554 13.7107C1.599 14.6685 1.74975 15.3217 1.9725 15.8955C2.202 16.4865 2.51025 16.9897 3.0105 17.49C3.51075 17.9895 4.0125 18.2992 4.605 18.528C5.1795 18.75 5.832 18.9022 6.78975 18.9465C7.74975 18.9915 8.055 19.0005 10.5 19.0005C12.945 19.0005 13.2502 18.9892 14.2102 18.9465C15.168 18.9015 15.8213 18.75 16.395 18.528C16.986 18.2985 17.4893 17.9895 17.9895 17.49C18.489 16.9897 18.7988 16.4887 19.0275 15.8955C19.2495 15.3217 19.4017 14.6685 19.446 13.7107C19.491 12.7507 19.5 12.4455 19.5 10.0005C19.5 7.55549 19.4887 7.25024 19.446 6.29024C19.401 5.33249 19.2495 4.67849 19.0275 4.10549C18.798 3.51374 18.489 3.01124 17.9895 2.51099C17.4893 2.01074 16.9883 1.70174 16.395 1.47299C15.8213 1.25024 15.168 1.09874 14.2102 1.05449C13.2502 1.00949 12.945 1.00049 10.5 1.00049ZM14.1375 2.67374C15.015 2.71499 15.4912 2.86049 15.8077 2.98499C16.2292 3.14774 16.5277 3.34274 16.8442 3.65699C17.1585 3.97199 17.3535 4.27124 17.5163 4.69274C17.6393 5.00924 17.7863 5.48549 17.826 6.36299C17.8688 7.31249 17.8785 7.59749 17.8785 10.0005C17.8785 12.4035 17.8672 12.6892 17.823 13.638C17.7772 14.5155 17.631 14.9917 17.5072 15.3082C17.3392 15.7297 17.148 16.0282 16.833 16.3447C16.5188 16.659 16.215 16.854 15.798 17.0167C15.483 17.1397 14.9992 17.2867 14.1217 17.3265C13.1662 17.3692 12.885 17.379 10.4775 17.379C8.06925 17.379 7.788 17.3677 6.83325 17.3235C5.955 17.2777 5.47125 17.1315 5.15625 17.0077C4.7295 16.8397 4.43625 16.6485 4.122 16.3335C3.80625 16.0192 3.6045 15.7155 3.447 15.2985C3.32325 14.9835 3.17775 14.4997 3.132 13.6222C3.09825 12.6772 3.08625 12.3855 3.08625 9.98924C3.08625 7.59224 3.09825 7.29974 3.132 6.34349C3.17775 5.46599 3.32325 4.98299 3.447 4.66799C3.6045 4.24049 3.80625 3.94799 4.122 3.63224C4.43625 3.31799 4.7295 3.11549 5.15625 2.95874C5.47125 2.83424 5.9445 2.68799 6.822 2.64299C7.77825 2.60924 8.0595 2.59799 10.4663 2.59799L10.5 2.62049C12.9023 2.62049 13.1887 2.63249 14.1375 2.67374ZM10.5 5.37899C7.94625 5.37899 5.8785 7.44899 5.8785 10.0005C5.8785 12.5542 7.9485 14.622 10.5 14.622C13.0538 14.622 15.1215 12.552 15.1215 10.0005C15.1215 7.44674 13.0515 5.37899 10.5 5.37899ZM10.5 13.0005C8.8425 13.0005 7.5 11.658 7.5 10.0005C7.5 8.34299 8.8425 7.00049 10.5 7.00049C12.1575 7.00049 13.5 8.34299 13.5 10.0005C13.5 11.658 12.1575 13.0005 10.5 13.0005ZM16.3845 5.19674C16.3845 5.79299 15.9 6.27674 15.3045 6.27674C14.7082 6.27674 14.2245 5.79224 14.2245 5.19674C14.2245 4.60124 14.709 4.11749 15.3045 4.11749C15.8992 4.11674 16.3845 4.60124 16.3845 5.19674Z" fill="white"/>
</svg>
