<svg width="25" height="24" viewBox="0 0 25 24" fill="none" xmlns="http://www.w3.org/2000/svg">
<g clip-path="url(#clip0_4_7612)">
<path d="M5.5 9.00002C5.76522 9.00002 6.01957 9.10537 6.20711 9.29291C6.39464 9.48045 6.5 9.7348 6.5 10C8.07114 9.9977 9.59698 10.5263 10.83 11.5H13C14.332 11.5 15.53 12.079 16.353 12.999L19.5 13C20.4453 12.9998 21.3712 13.2675 22.1705 13.7721C22.9698 14.2767 23.6097 14.9975 24.016 15.851C21.651 18.972 17.822 21 13.5 21C10.71 21 8.35 20.397 6.44 19.342C6.37004 19.5351 6.24224 19.7019 6.07402 19.8196C5.90579 19.9374 5.70534 20.0004 5.5 20H2.5C2.23478 20 1.98043 19.8947 1.79289 19.7071C1.60536 19.5196 1.5 19.2652 1.5 19V10C1.5 9.7348 1.60536 9.48045 1.79289 9.29291C1.98043 9.10537 2.23478 9.00002 2.5 9.00002H5.5ZM6.501 12L6.5 17.021L6.545 17.054C8.34 18.314 10.678 19 13.5 19C16.504 19 19.299 17.844 21.335 15.87L21.468 15.737L21.348 15.637C20.8758 15.2672 20.3034 15.0477 19.705 15.007L19.5 15L17.388 14.999C17.461 15.321 17.5 15.656 17.5 16V17H8.5V15L15.29 14.999L15.256 14.921C15.0644 14.5206 14.7696 14.1783 14.4019 13.9295C14.0343 13.6806 13.607 13.5341 13.164 13.505L13 13.5H10.07C9.60531 13.0247 9.05027 12.6472 8.43752 12.3896C7.82477 12.132 7.16669 11.9995 6.502 12H6.501ZM4.5 11H3.5V18H4.5V11ZM14.146 3.57502L14.5 3.93002L14.854 3.57602C15.0858 3.34224 15.3615 3.15654 15.6653 3.0296C15.969 2.90265 16.2949 2.83696 16.6241 2.83629C16.9533 2.83561 17.2795 2.89997 17.5837 3.02567C17.888 3.15137 18.1645 3.33593 18.3973 3.56876C18.63 3.80159 18.8145 4.07811 18.9401 4.38243C19.0657 4.68675 19.13 5.01288 19.1292 5.3421C19.1285 5.67133 19.0627 5.99716 18.9356 6.30089C18.8086 6.60462 18.6228 6.88027 18.389 7.11202L14.5 11L10.61 7.11002C10.3762 6.87821 10.1905 6.6025 10.0636 6.29874C9.93664 5.99497 9.87094 5.66912 9.87027 5.3399C9.86959 5.01067 9.93395 4.68456 10.0597 4.38027C10.1854 4.07599 10.3699 3.79953 10.6027 3.56676C10.8356 3.334 11.1121 3.14951 11.4164 3.0239C11.7207 2.89829 12.0469 2.83402 12.3761 2.83478C12.7053 2.83555 13.0311 2.90134 13.3349 3.02837C13.6386 3.1554 13.9143 3.34117 14.146 3.57502V3.57502ZM12.026 4.99002C11.9431 5.07244 11.8917 5.18129 11.8808 5.29766C11.8698 5.41403 11.9 5.53057 11.966 5.62702L12.024 5.69602L14.5 8.17002L16.976 5.69602C17.0588 5.61329 17.11 5.50411 17.1206 5.38753C17.1312 5.27094 17.1006 5.15433 17.034 5.05802L16.976 4.98802C16.8931 4.90534 16.7839 4.85435 16.6673 4.84394C16.5507 4.83352 16.4342 4.86434 16.338 4.93102L16.268 4.98902L14.499 6.75702L12.732 4.98702L12.664 4.93102C12.5677 4.86447 12.4511 4.83382 12.3345 4.84442C12.2179 4.85502 12.1087 4.90619 12.026 4.98902V4.99002Z" fill="#5B40FF"/>
</g>
<defs>
<clipPath id="clip0_4_7612">
<rect width="24" height="24" fill="white" transform="translate(0.5)"/>
</clipPath>
</defs>
</svg>
