<svg width="25" height="24" viewBox="0 0 25 24" fill="none" xmlns="http://www.w3.org/2000/svg">
<g clip-path="url(#clip0_4_7618)">
<path d="M7.5 4V2H17.5V4H20.507C21.055 4 21.5 4.445 21.5 4.993V21.007C21.4997 21.2703 21.395 21.5227 21.2089 21.7089C21.0227 21.895 20.7703 21.9997 20.507 22H4.493C4.22972 21.9997 3.9773 21.895 3.79114 21.7089C3.60497 21.5227 3.50026 21.2703 3.5 21.007V4.993C3.5 4.445 3.945 4 4.493 4H7.5ZM7.5 6H5.5V20H19.5V6H17.5V8H7.5V6ZM9.5 4V6H15.5V4H9.5Z" fill="#5B40FF"/>
</g>
<defs>
<clipPath id="clip0_4_7618">
<rect width="24" height="24" fill="white" transform="translate(0.5)"/>
</clipPath>
</defs>
</svg>
