<svg width="25" height="24" viewBox="0 0 25 24" fill="none" xmlns="http://www.w3.org/2000/svg">
<g clip-path="url(#clip0_4_7631)">
<path d="M18 21C17.0717 21 16.1815 20.6313 15.5251 19.9749C14.8687 19.3185 14.5 18.4283 14.5 17.5C14.5 16.5717 14.8687 15.6815 15.5251 15.0251C16.1815 14.3687 17.0717 14 18 14C18.9283 14 19.8185 14.3687 20.4749 15.0251C21.1313 15.6815 21.5 16.5717 21.5 17.5C21.5 18.4283 21.1313 19.3185 20.4749 19.9749C19.8185 20.6313 18.9283 21 18 21V21ZM18 19C18.3978 19 18.7794 18.842 19.0607 18.5607C19.342 18.2794 19.5 17.8978 19.5 17.5C19.5 17.1022 19.342 16.7206 19.0607 16.4393C18.7794 16.158 18.3978 16 18 16C17.6022 16 17.2206 16.158 16.9393 16.4393C16.658 16.7206 16.5 17.1022 16.5 17.5C16.5 17.8978 16.658 18.2794 16.9393 18.5607C17.2206 18.842 17.6022 19 18 19ZM7 10C6.54037 10 6.08525 9.90947 5.66061 9.73358C5.23597 9.55769 4.85013 9.29988 4.52513 8.97487C4.20012 8.64987 3.94231 8.26403 3.76642 7.83939C3.59053 7.41475 3.5 6.95963 3.5 6.5C3.5 6.04037 3.59053 5.58525 3.76642 5.16061C3.94231 4.73597 4.20012 4.35013 4.52513 4.02513C4.85013 3.70012 5.23597 3.44231 5.66061 3.26642C6.08525 3.09053 6.54037 3 7 3C7.92826 3 8.8185 3.36875 9.47487 4.02513C10.1313 4.6815 10.5 5.57174 10.5 6.5C10.5 7.42826 10.1313 8.3185 9.47487 8.97487C8.8185 9.63125 7.92826 10 7 10V10ZM7 8C7.39782 8 7.77936 7.84196 8.06066 7.56066C8.34196 7.27936 8.5 6.89782 8.5 6.5C8.5 6.10218 8.34196 5.72064 8.06066 5.43934C7.77936 5.15804 7.39782 5 7 5C6.60218 5 6.22064 5.15804 5.93934 5.43934C5.65804 5.72064 5.5 6.10218 5.5 6.5C5.5 6.89782 5.65804 7.27936 5.93934 7.56066C6.22064 7.84196 6.60218 8 7 8V8ZM19.571 3.515L20.985 4.929L5.43 20.485L4.016 19.071L19.57 3.515H19.571Z" fill="#5B40FF"/>
</g>
<defs>
<clipPath id="clip0_4_7631">
<rect width="24" height="24" fill="white" transform="translate(0.5)"/>
</clipPath>
</defs>
</svg>
