<svg width="25" height="24" viewBox="0 0 25 24" fill="none" xmlns="http://www.w3.org/2000/svg">
<g clip-path="url(#clip0_4_7637)">
<path d="M13.5 19.9C14.6292 19.6691 15.644 19.0554 16.3729 18.1625C17.1017 17.2697 17.4999 16.1526 17.5 15V12C17.5013 11.3118 17.36 10.6308 17.085 10H7.915C7.63996 10.6308 7.49866 11.3118 7.5 12V15C7.50014 16.1526 7.8983 17.2697 8.62714 18.1625C9.35599 19.0554 10.3708 19.6691 11.5 19.9V14H13.5V19.9ZM6.036 17.69C5.68115 16.8376 5.49897 15.9233 5.5 15H2.5V13H5.5V12C5.5 11.357 5.587 10.735 5.749 10.144L3.536 8.866L4.536 7.134L6.556 8.3C6.61975 8.19831 6.68611 8.09828 6.755 8H18.245C18.314 8.098 18.38 8.199 18.444 8.3L20.464 7.134L21.464 8.866L19.251 10.144C19.413 10.734 19.5 11.357 19.5 12V13H22.5V15H19.5C19.5 15.953 19.31 16.862 18.964 17.69L21.464 19.134L20.464 20.866L17.938 19.408C17.2824 20.2184 16.4537 20.8718 15.5127 21.3203C14.5718 21.7688 13.5424 22.001 12.5 22C11.4576 22.001 10.4282 21.7688 9.48726 21.3203C8.5463 20.8718 7.71763 20.2184 7.062 19.408L4.536 20.866L3.536 19.134L6.036 17.691V17.69ZM8.5 6C8.5 4.93913 8.92143 3.92172 9.67157 3.17157C10.4217 2.42143 11.4391 2 12.5 2C13.5609 2 14.5783 2.42143 15.3284 3.17157C16.0786 3.92172 16.5 4.93913 16.5 6H8.5Z" fill="#5B40FF"/>
</g>
<defs>
<clipPath id="clip0_4_7637">
<rect width="24" height="24" fill="white" transform="translate(0.5)"/>
</clipPath>
</defs>
</svg>
