<svg width="25" height="24" viewBox="0 0 25 24" fill="none" xmlns="http://www.w3.org/2000/svg">
<g clip-path="url(#clip0_4_10522)">
<path d="M10.4732 18H11.5002V13H13.5002V18H14.5272C14.6592 16.798 15.2722 15.806 16.2672 14.723C16.3802 14.601 17.0992 13.856 17.1842 13.75C17.8905 12.8676 18.3332 11.8037 18.4613 10.6807C18.5895 9.55781 18.3978 8.42151 17.9085 7.40271C17.4191 6.38392 16.6519 5.52406 15.6953 4.92215C14.7387 4.32025 13.6315 4.00078 12.5013 4.00054C11.3711 4.0003 10.2637 4.31929 9.30686 4.92079C8.34999 5.52228 7.58246 6.38182 7.09267 7.4004C6.60288 8.41899 6.41074 9.55521 6.5384 10.6782C6.66605 11.8012 7.10829 12.8653 7.8142 13.748C7.9002 13.855 8.6212 14.601 8.7322 14.722C9.7282 15.806 10.3412 16.798 10.4732 18V18ZM10.5002 20V21H14.5002V20H10.5002ZM6.2542 15C5.31239 13.8233 4.72215 12.4044 4.55147 10.9069C4.38078 9.40944 4.6366 7.89418 5.28946 6.53572C5.94231 5.17725 6.96564 4.03085 8.24156 3.22856C9.51748 2.42627 10.9941 2.00074 12.5013 2.00098C14.0085 2.00122 15.485 2.42722 16.7606 3.22992C18.0363 4.03262 19.0592 5.17935 19.7117 6.53803C20.3641 7.8967 20.6194 9.41204 20.4482 10.9095C20.2771 12.4069 19.6864 13.8256 18.7442 15.002C18.1242 15.774 16.5002 17 16.5002 18.5V21C16.5002 21.5304 16.2895 22.0391 15.9144 22.4142C15.5393 22.7893 15.0306 23 14.5002 23H10.5002C9.96977 23 9.46106 22.7893 9.08599 22.4142C8.71092 22.0391 8.5002 21.5304 8.5002 21V18.5C8.5002 17 6.8752 15.774 6.2542 15Z" fill="#5B40FF"/>
</g>
<defs>
<clipPath id="clip0_4_10522">
<rect width="24" height="24" fill="white" transform="translate(0.5)"/>
</clipPath>
</defs>
</svg>
