<svg width="12" height="16" viewBox="0 0 12 16" fill="none" xmlns="http://www.w3.org/2000/svg">
<path d="M6.00289 7.16653C6.66234 7.16653 7.30698 6.97098 7.85529 6.60461C8.40361 6.23824 8.83097 5.7175 9.08333 5.10825C9.33569 4.499 9.40172 3.82859 9.27306 3.18181C9.14441 2.53503 8.82686 1.94093 8.36055 1.47462C7.89425 1.00832 7.30015 0.690767 6.65337 0.562115C6.00659 0.433462 5.33618 0.499492 4.72693 0.751852C4.11768 1.00421 3.59694 1.43157 3.23057 1.97988C2.8642 2.5282 2.66865 3.17284 2.66865 3.83229C2.66865 4.71659 3.01993 5.56466 3.64523 6.18995C4.27052 6.81525 5.11859 7.16653 6.00289 7.16653ZM6.00289 2.16517C6.33261 2.16517 6.65494 2.26294 6.92909 2.44613C7.20325 2.62931 7.41693 2.88968 7.54311 3.19431C7.66929 3.49894 7.7023 3.83414 7.63798 4.15753C7.57365 4.48092 7.41487 4.77797 7.18172 5.01112C6.94857 5.24427 6.65152 5.40305 6.32813 5.46738C6.00474 5.5317 5.66954 5.49869 5.36491 5.37251C5.06028 5.24633 4.79992 5.03265 4.61673 4.75849C4.43354 4.48433 4.33577 4.16201 4.33577 3.83229C4.33577 3.39014 4.51141 2.9661 4.82406 2.65346C5.1367 2.34081 5.56074 2.16517 6.00289 2.16517Z" fill="#D0D0D0"/>
<path d="M6.00289 8.83365C4.45537 8.83365 2.97124 9.4484 1.87698 10.5427C0.782717 11.6369 0.167969 13.1211 0.167969 14.6686C0.167969 14.8896 0.25579 15.1017 0.412113 15.258C0.568436 15.4143 0.780455 15.5021 1.00153 15.5021C1.2226 15.5021 1.43462 15.4143 1.59094 15.258C1.74727 15.1017 1.83509 14.8896 1.83509 14.6686C1.83509 13.5632 2.2742 12.5031 3.05581 11.7215C3.83742 10.9399 4.89752 10.5008 6.00289 10.5008C7.10826 10.5008 8.16835 10.9399 8.94997 11.7215C9.73158 12.5031 10.1707 13.5632 10.1707 14.6686C10.1707 14.8896 10.2585 15.1017 10.4148 15.258C10.5712 15.4143 10.7832 15.5021 11.0043 15.5021C11.2253 15.5021 11.4373 15.4143 11.5937 15.258C11.75 15.1017 11.8378 14.8896 11.8378 14.6686C11.8378 13.1211 11.2231 11.6369 10.1288 10.5427C9.03454 9.4484 7.55041 8.83365 6.00289 8.83365Z" fill="#D0D0D0"/>
</svg>
