<svg width="16" height="16" viewBox="0 0 16 16" fill="none" xmlns="http://www.w3.org/2000/svg">
<path d="M5.5 0.5H2.16667C1.72464 0.5 1.30072 0.675595 0.988155 0.988155C0.675595 1.30072 0.5 1.72464 0.5 2.16667V6.33333C0.5 6.77536 0.675595 7.19928 0.988155 7.51184C1.30072 7.8244 1.72464 8 2.16667 8H5.5C5.94203 8 6.36595 7.8244 6.67851 7.51184C6.99107 7.19928 7.16667 6.77536 7.16667 6.33333V2.16667C7.16667 1.72464 6.99107 1.30072 6.67851 0.988155C6.36595 0.675595 5.94203 0.5 5.5 0.5ZM2.16667 6.33333V2.16667H5.5V6.33333H2.16667Z" fill="black"/>
<path d="M13.8333 0.5H10.5C10.058 0.5 9.63405 0.675595 9.32149 0.988155C9.00893 1.30072 8.83333 1.72464 8.83333 2.16667V4.66667C8.83333 5.10869 9.00893 5.53262 9.32149 5.84518C9.63405 6.15774 10.058 6.33333 10.5 6.33333H13.8333C14.2754 6.33333 14.6993 6.15774 15.0118 5.84518C15.3244 5.53262 15.5 5.10869 15.5 4.66667V2.16667C15.5 1.72464 15.3244 1.30072 15.0118 0.988155C14.6993 0.675595 14.2754 0.5 13.8333 0.5ZM10.5 4.66667V2.16667H13.8333V4.66667H10.5Z" fill="black"/>
<path d="M5.5 9.66667H2.16667C1.72464 9.66667 1.30072 9.84226 0.988155 10.1548C0.675595 10.4674 0.5 10.8913 0.5 11.3333V13.8333C0.5 14.2754 0.675595 14.6993 0.988155 15.0118C1.30072 15.3244 1.72464 15.5 2.16667 15.5H5.5C5.94203 15.5 6.36595 15.3244 6.67851 15.0118C6.99107 14.6993 7.16667 14.2754 7.16667 13.8333V11.3333C7.16667 10.8913 6.99107 10.4674 6.67851 10.1548C6.36595 9.84226 5.94203 9.66667 5.5 9.66667ZM2.16667 13.8333V11.3333H5.5V13.8333H2.16667Z" fill="black"/>
<path d="M13.8333 8H10.5C10.058 8 9.63405 8.17559 9.32149 8.48816C9.00893 8.80072 8.83333 9.22464 8.83333 9.66667V13.8333C8.83333 14.2754 9.00893 14.6993 9.32149 15.0118C9.63405 15.3244 10.058 15.5 10.5 15.5H13.8333C14.2754 15.5 14.6993 15.3244 15.0118 15.0118C15.3244 14.6993 15.5 14.2754 15.5 13.8333V9.66667C15.5 9.22464 15.3244 8.80072 15.0118 8.48816C14.6993 8.17559 14.2754 8 13.8333 8ZM10.5 13.8333V9.66667H13.8333V13.8333H10.5Z" fill="black"/>
</svg>
