<svg width="21" height="20" viewBox="0 0 21 20" fill="none" xmlns="http://www.w3.org/2000/svg">
<g clip-path="url(#clip0_4_12285)">
<path fill-rule="evenodd" clip-rule="evenodd" d="M20.0825 5.16225C19.8467 4.31614 19.1866 3.65497 18.3418 3.41883C16.7829 3.0005 10.509 3.0005 10.509 3.0005C10.509 3.0005 4.25088 2.99216 2.67614 3.41883C1.83138 3.65497 1.17127 4.31614 0.935508 5.16225C0.640001 6.76082 0.494315 8.38355 0.50017 10.0093C0.495456 11.6289 0.641137 13.2454 0.935508 14.8379C1.17127 15.684 1.83138 16.3452 2.67614 16.5813C4.23337 17.0005 10.509 17.0005 10.509 17.0005C10.509 17.0005 16.7663 17.0005 18.3418 16.5813C19.1866 16.3452 19.8467 15.684 20.0825 14.8379C20.3707 13.2448 20.5102 11.6283 20.4993 10.0093C20.5114 8.38412 20.3718 6.7614 20.0825 5.16225ZM8.50659 13.0077V7.0017L13.7285 10.0093L8.50659 13.0077Z" fill="white"/>
</g>
<defs>
<clipPath id="clip0_4_12285">
<rect width="20" height="20" fill="white" transform="translate(0.5 0.000488281)"/>
</clipPath>
</defs>
</svg>
