<svg width="25" height="24" viewBox="0 0 25 24" fill="none" xmlns="http://www.w3.org/2000/svg">
<g clip-path="url(#clip0_4_8667)">
<path d="M12.5 22C6.977 22 2.5 17.523 2.5 12C2.5 6.477 6.977 2 12.5 2C18.023 2 22.5 6.477 22.5 12C22.5 17.523 18.023 22 12.5 22ZM12.5 20C14.6217 20 16.6566 19.1571 18.1569 17.6569C19.6571 16.1566 20.5 14.1217 20.5 12C20.5 9.87827 19.6571 7.84344 18.1569 6.34315C16.6566 4.84285 14.6217 4 12.5 4C10.3783 4 8.34344 4.84285 6.84315 6.34315C5.34285 7.84344 4.5 9.87827 4.5 12C4.5 14.1217 5.34285 16.1566 6.84315 17.6569C8.34344 19.1571 10.3783 20 12.5 20V20ZM11.5 16H8.5V8H11.5V6H13.5V8H14.5C14.9643 8 15.4194 8.12929 15.8143 8.37337C16.2093 8.61746 16.5284 8.9667 16.7361 9.38197C16.9437 9.79723 17.0316 10.2621 16.9899 10.7245C16.9482 11.1869 16.7786 11.6286 16.5 12C16.7786 12.3714 16.9482 12.8131 16.9899 13.2755C17.0316 13.7379 16.9437 14.2028 16.7361 14.618C16.5284 15.0333 16.2093 15.3825 15.8143 15.6266C15.4194 15.8707 14.9643 16 14.5 16H13.5V18H11.5V16ZM10.5 13V14H14.5C14.6326 14 14.7598 13.9473 14.8536 13.8536C14.9473 13.7598 15 13.6326 15 13.5C15 13.3674 14.9473 13.2402 14.8536 13.1464C14.7598 13.0527 14.6326 13 14.5 13H10.5ZM10.5 10V11H14.5C14.6326 11 14.7598 10.9473 14.8536 10.8536C14.9473 10.7598 15 10.6326 15 10.5C15 10.3674 14.9473 10.2402 14.8536 10.1464C14.7598 10.0527 14.6326 10 14.5 10H10.5Z" fill="#5B40FF"/>
</g>
<defs>
<clipPath id="clip0_4_8667">
<rect width="24" height="24" fill="white" transform="translate(0.5)"/>
</clipPath>
</defs>
</svg>
