<svg width="25" height="24" viewBox="0 0 25 24" fill="none" xmlns="http://www.w3.org/2000/svg">
<g clip-path="url(#clip0_4_8673)">
<path d="M7 2H18C18.1552 2 18.3084 2.03614 18.4472 2.10557C18.5861 2.175 18.7069 2.2758 18.8 2.4L21.5 6V21C21.5 21.2652 21.3946 21.5196 21.2071 21.7071C21.0196 21.8946 20.7652 22 20.5 22H4.5C4.23478 22 3.98043 21.8946 3.79289 21.7071C3.60536 21.5196 3.5 21.2652 3.5 21V6L6.2 2.4C6.29315 2.2758 6.41393 2.175 6.55279 2.10557C6.69164 2.03614 6.84475 2 7 2ZM19.5 8H5.5V20H19.5V8ZM19 6L17.5 4H7.5L6 6H19ZM9.5 10V12C9.5 12.7956 9.81607 13.5587 10.3787 14.1213C10.9413 14.6839 11.7044 15 12.5 15C13.2956 15 14.0587 14.6839 14.6213 14.1213C15.1839 13.5587 15.5 12.7956 15.5 12V10H17.5V12C17.5 13.3261 16.9732 14.5979 16.0355 15.5355C15.0979 16.4732 13.8261 17 12.5 17C11.1739 17 9.90215 16.4732 8.96447 15.5355C8.02678 14.5979 7.5 13.3261 7.5 12V10H9.5Z" fill="#5B40FF"/>
</g>
<defs>
<clipPath id="clip0_4_8673">
<rect width="24" height="24" fill="white" transform="translate(0.5)"/>
</clipPath>
</defs>
</svg>
