<svg width="24" height="25" viewBox="0 0 24 25" fill="none" xmlns="http://www.w3.org/2000/svg">
<g clip-path="url(#clip0_4_8729)">
<path d="M12 1.5L20.217 3.326C20.674 3.428 21 3.833 21 4.302V14.289C21 16.295 19.997 18.169 18.328 19.281L12 23.5L5.672 19.281C4.002 18.168 3 16.295 3 14.29V4.302C3 3.833 3.326 3.428 3.783 3.326L12 1.5ZM12 3.549L5 5.104V14.289C5 15.626 5.668 16.875 6.781 17.617L12 21.097L17.219 17.617C18.332 16.875 19 15.627 19 14.29V5.104L12 3.55V3.549ZM16.452 8.722L17.867 10.136L11.503 16.5L7.26 12.257L8.674 10.843L11.502 13.671L16.452 8.721V8.722Z" fill="#5B40FF"/>
</g>
<defs>
<clipPath id="clip0_4_8729">
<rect width="24" height="24" fill="white" transform="translate(0 0.5)"/>
</clipPath>
</defs>
</svg>
