<svg width="21" height="20" viewBox="0 0 21 20" fill="none" xmlns="http://www.w3.org/2000/svg">
<g clip-path="url(#clip0_4_12279)">
<path fill-rule="evenodd" clip-rule="evenodd" d="M20.4608 3.90586C19.7234 4.22492 18.9359 4.44228 18.1068 4.54152C18.9517 4.04037 19.6017 3.2505 19.9092 2.30807C19.1167 2.76329 18.2384 3.09466 17.3035 3.27921C16.5568 2.49262 15.4927 2.00049 14.3111 2.00049C12.047 2.00049 10.2113 3.80743 10.2113 6.0335C10.2113 6.35339 10.2488 6.66097 10.3171 6.95543C6.9089 6.79713 3.88819 5.18622 1.86661 2.75099C1.51079 3.34319 1.31163 4.03135 1.31163 4.78103C1.31163 6.1836 2.0366 7.41639 3.13489 8.14064C2.46242 8.11932 1.82994 7.93723 1.2783 7.63539V7.68542C1.2783 9.64164 2.68908 11.2731 4.5665 11.6446C4.22234 11.7357 3.85903 11.7849 3.48654 11.7849C3.22489 11.7849 2.97406 11.7603 2.72324 11.7143C3.24905 13.3162 4.76066 14.4842 6.55975 14.517C5.15981 15.5989 3.38571 16.2436 1.47496 16.2436C1.14997 16.2436 0.82582 16.2247 0.5 16.1886C2.32409 17.332 4.47317 18.0005 6.79724 18.0005C14.3419 18.0005 18.4626 11.8521 18.4626 6.52891C18.4626 6.35749 18.4626 6.18442 18.4501 6.01218C19.2509 5.44705 19.95 4.73264 20.5 3.92226L20.4608 3.90586Z" fill="white"/>
</g>
<defs>
<clipPath id="clip0_4_12279">
<rect width="20" height="20" fill="white" transform="translate(0.5 0.000488281)"/>
</clipPath>
</defs>
</svg>
